<svg version="1.0" xmlns="http://www.w3.org/2000/svg"  width="300.000000pt" height="300.000000pt" viewBox="0 0 300.000000 300.000000"  preserveAspectRatio="xMidYMid meet">  <g transform="translate(0.000000,300.000000) scale(0.100000,-0.100000)" fill="#000000" stroke="none"> <path d="M1340 2748 c0 -18 11 -80 25 -137 14 -57 24 -105 23 -106 -2 -2 -26 -14 -53 -28 -74 -37 -165 -109 -204 -161 -19 -25 -36 -46 -38 -46 -2 0 -29 13 -61 29 -76 38 -201 83 -213 75 -28 -17 21 -123 128 -274 59 -84 60 -86 65 -165 3 -44 8 -87 12 -96 5 -11 -8 -26 -49 -52 -30 -21 -55 -42 -55 -48 0 -11 3 -9 68 34 24 16 44 28 46 26 1 -2 8 -22 14 -44 l12 -40 -53 -53 -53 -53 -74 35 c-41 20 -82 36 -91 36 -10 0 -31 -12 -48 -26 -39 -32 -49 -82 -26 -121 51 -87 289 -179 488 -190 55 -3 101 -11 105 -17 4 -6 51 -107 104 -225 l98 -215 -31 -32 c-78 -81 -223 -124 -315 -94 -105 35 -159 98 -229 265 -55 133 -102 204 -165 250 -64 47 -119 65 -199 65 -105 -1 -183 -47 -197 -118 -13 -65 86 -119 142 -77 31 24 111 19 160 -10 54 -31 72 -58 145 -205 74 -148 140 -225 237 -272 62 -31 74 -33 167 -33 119 0 166 15 272 86 l72 48 30 -74 c40 -94 61 -185 61 -260 0 -102 32 -123 191 -127 100 -3 127 5 135 38 15 59 -39 114 -111 114 l-37 0 47 53 c53 60 130 206 140 265 3 22 14 47 23 55 27 24 234 147 247 147 18 0 30 -19 45 -65 18 -58 38 -85 62 -85 56 0 184 92 208 149 27 67 -19 118 -81 87 -41 -21 -40 -21 -27 15 14 39 6 114 -16 161 -22 46 -75 80 -126 82 l-38 1 -5 62 c-9 88 -66 253 -137 391 l-59 118 24 61 c89 220 81 560 -16 664 -58 62 -158 23 -159 -63 -1 -13 -20 -44 -46 -72 -41 -45 -46 -47 -62 -33 -29 27 -144 77 -205 89 -53 11 -63 18 -104 68 -141 169 -213 219 -213 148z m115 -70 c86 -93 121 -138 107 -138 -5 0 -21 15 -35 33 -37 47 -119 129 -124 123 -5 -5 24 -157 32 -164 9 -9 5 21 -9 83 -8 33 -13 61 -11 63 4 4 125 -131 125 -139 0 -4 -21 -9 -47 -12 -27 -2 -55 -8 -64 -11 -14 -6 -21 10 -43 102 -28 117 -31 142 -17 142 5 0 44 -37 86 -82z m617 -90 l1 -33 4 33 c5 37 13 40 37 13 33 -36 58 -140 63 -261 6 -132 -6 -224 -45 -346 l-27 -86 -42 66 -43 67 50 66 c28 36 50 71 50 78 0 7 -18 35 -40 63 -55 68 -53 87 10 115 28 13 48 26 45 29 -4 4 -27 -2 -52 -13 -25 -11 -47 -18 -48 -17 -1 2 -5 18 -8 35 -6 30 -3 35 38 63 25 17 45 33 45 35 0 11 -20 3 -55 -20 -20 -15 -38 -25 -40 -23 -1 2 -7 17 -13 34 -8 26 -7 35 6 49 16 17 16 17 -2 11 -16 -5 -17 -3 -11 21 9 37 25 53 25 26 0 -12 5 -25 10 -28 6 -4 10 7 10 24 0 44 29 42 32 -1z m-402 -79 c46 -11 151 -58 184 -84 16 -12 17 -17 6 -30 -14 -17 0 -21 17 -4 8 8 17 7 31 -2 l21 -13 -21 -23 c-25 -26 -14 -31 14 -7 14 14 20 14 33 4 21 -17 19 -25 -11 -39 -15 -6 -24 -14 -21 -17 3 -3 19 2 35 10 l31 16 55 -63 c31 -34 56 -66 56 -70 0 -18 -90 -125 -164 -195 -146 -139 -307 -244 -567 -372 -124 -61 -151 -71 -178 -65 -20 4 -36 16 -43 31 -10 22 -7 29 33 70 24 26 79 77 121 115 43 37 74 70 70 73 -9 5 -164 -133 -214 -190 l-31 -35 -18 42 c-11 23 -19 45 -19 50 0 5 56 46 125 91 68 45 122 84 120 86 -6 6 -86 -41 -178 -105 -52 -36 -79 -49 -82 -41 -2 7 -9 25 -14 41 -10 27 -9 28 77 71 48 23 108 51 135 61 26 10 47 22 47 26 0 11 -57 -11 -179 -67 -52 -25 -95 -43 -97 -41 -2 1 -6 43 -10 92 -8 107 8 183 61 290 101 207 366 342 575 294z m318 -46 c10 -30 9 -34 -19 -54 -29 -20 -31 -20 -50 -3 -19 17 -19 18 18 56 20 21 37 37 38 35 1 -1 7 -17 13 -34z m24 -83 c6 -38 -7 -48 -33 -24 -18 16 -18 18 -3 36 24 25 31 23 36 -12z m-1004 -94 c39 -20 72 -38 72 -40 0 -2 -11 -29 -25 -60 -14 -31 -25 -63 -25 -71 0 -8 -3 -15 -7 -15 -10 0 -133 185 -133 199 0 6 -5 11 -10 11 -14 0 0 -26 76 -139 59 -86 75 -121 57 -121 -18 0 -183 270 -183 299 0 13 89 -18 178 -63z m1022 34 c0 -5 -4 -10 -10 -10 -5 0 -10 5 -10 10 0 6 5 10 10 10 6 0 10 -4 10 -10z m135 -575 c79 -159 121 -286 131 -394 l6 -66 47 3 c85 6 135 -57 134 -170 0 -53 -6 -79 -27 -119 -14 -28 -26 -53 -26 -56 0 -3 22 18 49 47 42 45 53 51 82 48 25 -2 35 -9 37 -23 3 -16 1 -18 -9 -7 -21 19 -34 14 -15 -7 10 -11 14 -25 10 -36 -6 -16 -9 -15 -25 6 -10 13 -21 20 -25 16 -4 -4 1 -16 11 -27 18 -20 18 -21 -16 -50 -48 -41 -113 -74 -131 -67 -9 3 -24 30 -33 59 -36 108 -66 113 -192 27 -55 -38 -61 -36 -24 8 17 21 31 44 31 52 0 8 -13 -4 -29 -25 -16 -21 -47 -57 -70 -79 l-41 -39 -1 29 c-1 24 -3 21 -10 -14 -13 -65 -38 -139 -69 -201 -35 -70 -127 -199 -146 -207 -32 -12 -11 -23 45 -23 50 0 62 -4 85 -26 29 -30 33 -56 11 -74 -12 -10 -15 -9 -15 8 0 11 -9 30 -20 43 l-19 24 11 -31 c20 -56 11 -61 -90 -53 -137 11 -137 11 -145 154 -7 109 -24 154 -281 714 -36 80 -66 146 -66 148 0 2 19 3 43 4 23 0 60 6 82 13 34 10 19 11 -110 8 -125 -3 -167 0 -253 17 -216 45 -372 129 -372 201 0 7 14 0 31 -14 17 -14 35 -26 41 -26 6 0 -6 15 -28 34 -48 42 -40 54 18 26 l43 -22 -30 26 c-16 14 -33 25 -37 26 -18 0 -6 20 16 26 16 4 46 -6 93 -30 103 -51 181 -75 285 -86 l92 -9 166 85 c239 121 450 264 560 378 l34 36 44 -67 c23 -38 76 -135 117 -218z m-1075 -95 c17 -33 18 -43 8 -60 -13 -21 -38 -21 -97 2 l-24 9 43 44 c24 25 45 45 47 45 1 0 12 -18 23 -40z m44 -75 c4 -10 -1 -15 -14 -15 -13 0 -18 5 -14 15 4 8 10 15 14 15 4 0 10 -7 14 -15z m-433 -283 c93 -45 154 -125 218 -285 84 -208 184 -287 349 -275 77 6 150 38 212 94 l39 35 20 -39 20 -39 -48 -36 c-125 -95 -266 -128 -388 -89 -127 40 -208 127 -301 323 -57 118 -110 176 -180 197 -54 16 -80 15 -131 -8 -53 -25 -63 -25 -91 -2 -46 37 -22 97 55 134 53 25 163 20 226 -10z"/> <path d="M1532 2484 c-22 -15 -30 -44 -13 -44 5 0 14 7 21 15 7 8 21 15 31 15 11 0 19 7 19 15 0 19 -30 19 -58 -1z"/> <path d="M1650 2484 c25 -7 52 -13 60 -13 21 1 -60 27 -85 28 -11 0 0 -7 25 -15z"/> <path d="M1424 2471 c-56 -20 -114 -49 -114 -56 0 -3 17 2 38 11 20 9 64 27 97 40 70 27 53 31 -21 5z"/> <path d="M1644 2462 c-64 -7 -112 -79 -94 -143 12 -40 26 -56 75 -87 65 -41 137 -25 170 38 16 32 6 90 -23 129 -26 36 -90 68 -128 63z m66 -35 c13 -7 35 -28 47 -46 49 -72 14 -151 -66 -151 -33 0 -47 7 -81 38 -34 33 -40 45 -40 81 0 74 70 113 140 78z"/> <path d="M1670 2400 c0 -26 47 -57 62 -42 9 9 6 18 -12 37 -28 30 -50 32 -50 5z"/> <path d="M1254 2374 l-39 -35 43 32 c38 30 48 39 39 39 -2 0 -21 -16 -43 -36z"/> <path d="M1980 2289 c0 -3 10 -17 23 -31 12 -13 33 -38 45 -54 12 -16 22 -24 22 -17 0 11 -89 113 -90 102z"/> <path d="M1170 2223 c-17 -26 -29 -52 -27 -57 5 -16 27 -19 27 -4 0 7 11 30 25 50 14 20 25 42 25 47 0 24 -22 8 -50 -36z"/> <path d="M1120 2238 c-12 -22 -12 -22 6 -6 10 10 15 20 12 24 -4 3 -12 -5 -18 -18z"/> <path d="M1271 2229 c-73 -45 -95 -139 -45 -199 35 -40 74 -60 121 -60 47 1 78 18 104 56 71 108 -72 269 -180 203z m123 -30 c123 -97 15 -274 -115 -186 -77 52 -80 142 -6 187 42 26 88 25 121 -1z"/> <path d="M1345 2189 c-8 -12 33 -59 52 -59 19 0 16 34 -5 53 -21 20 -38 22 -47 6z"/> <path d="M1586 2211 c-19 -21 -14 -43 8 -35 8 3 21 -5 30 -18 15 -22 14 -24 -36 -75 -52 -52 -52 -52 -32 -74 46 -51 119 -64 154 -27 24 26 26 75 5 133 -9 24 -11 41 -5 43 6 2 10 8 10 14 0 5 -15 1 -34 -10 -31 -18 -36 -19 -47 -5 -7 8 -13 27 -14 41 0 32 -17 38 -39 13z m114 -108 c0 -7 -14 -11 -35 -10 l-36 2 27 23 c27 24 43 18 44 -15z m-5 -45 c29 -13 27 -41 -7 -70 -23 -21 -58 -16 -100 14 -34 23 -35 31 -5 51 27 19 77 21 112 5z"/> <path d="M1101 2004 c0 -11 3 -14 6 -6 3 7 2 16 -1 19 -3 4 -6 -2 -5 -13z"/> <path d="M903 2293 c4 -3 42 -21 84 -40 43 -19 71 -28 63 -20 -8 8 -43 26 -78 40 -65 28 -81 32 -69 20z"/> <path d="M980 2236 c0 -3 14 -12 30 -21 17 -9 30 -13 30 -11 0 3 -13 12 -30 21 -16 9 -30 13 -30 11z"/> <path d="M1848 1833 c-64 -38 -134 -113 -168 -181 -18 -35 -25 -70 -29 -145 -5 -88 -3 -106 20 -175 32 -96 77 -183 109 -209 8 -7 11 -13 7 -13 -24 -1 99 -90 144 -105 156 -52 272 27 334 229 16 51 17 70 8 151 -14 112 -59 246 -113 332 -22 35 -40 67 -40 71 0 4 -26 23 -57 42 -79 48 -137 49 -215 3z m205 -19 c70 -46 132 -150 173 -294 23 -78 26 -106 22 -193 -3 -85 -8 -112 -31 -162 -66 -141 -176 -189 -302 -130 -95 45 -208 208 -235 342 -18 83 -8 207 19 265 58 120 191 216 281 202 19 -3 52 -16 73 -30z"/> <path d="M1930 1753 c0 -14 -21 -38 -64 -72 -51 -40 -71 -51 -101 -51 l-36 0 20 -26 c16 -20 21 -41 21 -83 0 -31 4 -62 9 -69 11 -18 22 -12 184 102 113 79 125 90 116 108 -12 23 -67 58 -91 58 -9 0 -26 12 -37 28 -19 25 -20 26 -21 5z m40 -52 c0 -5 -7 -11 -15 -15 -23 -8 -18 -53 7 -70 22 -16 22 -16 3 -34 -11 -10 -36 -28 -56 -40 l-36 -22 5 25 c8 46 -33 71 -65 39 -11 -11 -19 -12 -26 -5 -8 8 -7 15 1 23 7 7 12 9 12 4 0 -4 30 18 68 48 61 51 102 69 102 47z m87 -47 c1 -5 -13 -19 -32 -32 -39 -25 -45 -22 -15 10 15 17 17 25 8 42 -11 20 -10 20 12 5 13 -9 25 -20 27 -25z m-62 0 c0 -10 -8 -20 -17 -22 -18 -3 -26 27 -11 42 12 11 28 0 28 -20z m-137 -97 c4 -22 -27 -35 -38 -16 -10 15 7 42 24 36 6 -2 12 -11 14 -20z m-18 -49 c10 -3 5 -10 -17 -22 l-33 -17 0 37 c0 34 1 36 18 22 9 -9 24 -18 32 -20z"/> <path d="M2066 1606 c-16 -14 -84 -61 -150 -107 l-122 -82 40 -76 c21 -42 40 -78 42 -80 2 -2 17 2 33 8 l29 13 -34 60 c-19 33 -34 64 -34 70 0 20 21 -5 46 -55 15 -29 28 -54 30 -56 3 -4 42 21 182 115 2 1 -8 25 -22 53 -28 55 -30 61 -18 61 5 0 19 -22 32 -50 20 -43 25 -48 42 -39 11 6 21 16 24 24 5 12 -75 165 -86 165 -3 -1 -18 -11 -34 -24z m46 -38 c55 -88 60 -98 44 -98 -9 0 -16 7 -16 15 0 9 -12 28 -26 42 -24 24 -27 24 -42 9 -15 -15 -14 -19 7 -62 12 -26 19 -50 14 -54 -4 -4 -37 -26 -72 -49 -69 -47 -65 -48 -102 22 -21 39 -39 46 -59 22 -10 -12 -7 -24 15 -66 14 -28 23 -54 19 -58 -4 -3 -8 -1 -10 4 -3 6 -17 32 -33 60 l-29 50 79 57 c43 32 83 58 88 58 5 0 11 4 13 8 3 9 78 60 89 61 4 1 13 -9 21 -21z"/> <path d="M833 1601 c53 -35 117 -64 116 -53 0 6 -125 72 -152 81 -7 2 10 -11 36 -28z"/> <path d="M1469 1575 c-3 -2 -41 -10 -85 -17 -43 -6 -71 -14 -61 -16 23 -5 148 16 167 28 13 8 13 10 -1 10 -9 0 -18 -2 -20 -5z"/> <path d="M1480 1544 l-25 -15 25 7 c28 7 35 12 29 18 -2 2 -15 -2 -29 -10z"/> <path d="M987 1535 c18 -8 58 -17 90 -20 l58 -5 -68 15 c-37 7 -78 16 -90 19 -12 3 -8 -1 10 -9z"/> <path d="M1380 1519 c-25 -4 -90 -8 -144 -8 -120 -1 -124 -10 -6 -11 94 -2 187 8 210 21 13 7 13 8 0 7 -8 0 -35 -4 -60 -9z"/> <path d="M2315 1259 c-27 -6 -26 -7 13 -8 55 -1 95 -25 118 -67 10 -18 20 -32 22 -30 6 7 -25 60 -46 79 -26 24 -70 35 -107 26z"/> <path d="M502 1234 c-30 -8 -61 -19 -70 -25 -19 -11 -13 -10 83 17 52 15 147 19 159 7 3 -4 13 -8 21 -9 24 -4 106 -54 111 -69 3 -7 13 -16 22 -19 9 -3 -4 14 -30 38 -79 73 -177 93 -296 60z"/> <path d="M452 2273 c-37 -18 -62 -58 -62 -99 0 -77 97 -144 208 -144 107 0 122 22 78 115 -28 59 -76 108 -128 129 -46 20 -55 20 -96 -1z m106 -27 c76 -40 143 -172 96 -190 -53 -20 -166 10 -210 55 -54 56 -20 149 53 149 19 0 46 -6 61 -14z"/> <path d="M532 1944 c-44 -31 -14 -76 37 -54 37 15 48 40 25 57 -23 17 -35 16 -62 -3z m43 -24 c-3 -5 -13 -10 -21 -10 -8 0 -12 5 -9 10 3 6 13 10 21 10 8 0 12 -4 9 -10z"/> <path d="M1510 419 c-234 -28 -533 -78 -547 -92 -10 -11 99 -38 206 -52 567 -73 660 -77 916 -40 61 8 160 22 220 31 143 20 268 45 278 54 11 9 -162 45 -338 69 -196 27 -261 34 -254 27 8 -8 40 -15 99 -22 25 -2 59 -6 75 -8 17 -3 52 -7 79 -10 42 -5 95 -14 181 -30 11 -2 40 -7 64 -11 28 -5 39 -10 30 -15 -16 -8 -172 -38 -234 -45 -40 -4 -70 -8 -155 -21 -25 -3 -58 -8 -75 -10 -16 -2 -68 -8 -115 -14 -107 -13 -210 -11 -328 6 -51 8 -121 16 -155 19 -121 11 -203 21 -369 47 -68 10 -87 24 -45 32 37 8 191 32 262 41 22 3 54 7 70 10 17 3 81 12 144 20 62 8 116 17 119 20 7 7 -35 5 -128 -6z"/> <path d="M1555 326 c-27 -6 -50 -16 -50 -21 0 -12 72 -24 145 -23 30 1 42 3 25 5 -92 11 -115 15 -115 21 0 4 11 9 23 10 13 1 35 6 48 11 l24 10 -25 -1 c-14 0 -47 -5 -75 -12z"/> <path d="M2006 305 c4 -11 -1 -15 -17 -16 -14 -1 -18 -3 -8 -6 8 -2 29 1 44 7 23 9 26 13 15 20 -23 15 -40 12 -34 -5z"/> </g> </svg> 