<?xml version="1.0" standalone="no"?>
<!DOCTYPE svg PUBLIC "-//W3C//DTD SVG 20010904//EN"
 "http://www.w3.org/TR/2001/REC-SVG-20010904/DTD/svg10.dtd">
<svg version="1.0" xmlns="http://www.w3.org/2000/svg"
 width="300.000000pt" height="300.000000pt" viewBox="0 0 300.000000 300.000000"
 preserveAspectRatio="xMidYMid meet">
<metadata>
Created by potrace 1.10, written by Peter Selinger 2001-2011
</metadata>
<g transform="translate(0.000000,300.000000) scale(0.100000,-0.100000)"
fill="#000000" stroke="none">
<path d="M646 2546 c-47 -18 -101 -68 -127 -118 -49 -96 -64 -302 -33 -470
l16 -86 -41 -84 c-61 -124 -76 -192 -75 -333 1 -139 26 -232 91 -345 37 -64
165 -202 232 -251 l33 -25 -42 -64 c-123 -190 -228 -481 -255 -712 l-7 -58
196 0 c182 0 195 1 189 18 -24 64 -108 141 -190 172 -31 11 -49 25 -51 36 -2
17 5 19 85 19 73 0 96 5 137 25 64 32 91 69 90 123 -1 58 -27 102 -101 174
l-64 62 66 106 c46 73 64 111 60 125 -3 10 -35 40 -71 65 -35 25 -64 49 -64
54 0 4 13 28 30 54 30 48 85 94 155 129 53 27 52 24 23 56 -90 96 -84 235 14
329 35 34 103 63 147 63 119 0 231 -104 231 -215 0 -19 4 -35 9 -35 4 0 38 27
74 60 88 81 109 81 196 0 35 -33 67 -60 72 -60 5 0 9 17 9 38 1 129 149 238
278 203 108 -28 177 -117 176 -226 0 -65 -18 -110 -62 -157 -14 -15 -24 -30
-21 -32 2 -2 27 -15 56 -30 29 -14 68 -40 88 -57 41 -37 89 -114 80 -129 -3
-5 -33 -28 -66 -50 -50 -35 -59 -45 -59 -71 0 -17 11 -45 24 -62 12 -18 40
-60 61 -95 l38 -63 -60 -57 c-33 -32 -70 -77 -82 -101 -66 -129 17 -223 199
-225 66 -1 86 -4 91 -16 5 -11 -12 -23 -61 -46 -78 -37 -144 -92 -171 -146
l-19 -38 196 0 197 0 -6 59 c-24 224 -137 535 -262 721 l-36 54 28 20 c62 44
178 165 218 226 140 215 152 484 34 715 l-39 78 14 71 c22 112 28 214 17 302
-19 149 -62 236 -140 282 -65 38 -161 38 -245 -1 -122 -56 -250 -169 -348
-308 l-39 -55 -57 8 c-78 11 -269 13 -372 4 l-86 -8 -58 76 c-176 230 -399
354 -540 302z"/>
<path d="M1033 1504 c-68 -34 -95 -133 -53 -201 56 -92 200 -82 245 16 55 123
-72 244 -192 185z"/>
<path d="M1844 1506 c-58 -26 -95 -100 -80 -161 4 -14 21 -42 39 -61 57 -62
157 -58 212 8 32 38 35 117 6 164 -34 56 -112 78 -177 50z"/>
<path d="M1428 1319 c-28 -16 -22 -55 13 -82 30 -23 31 -26 19 -61 -19 -57
-80 -74 -93 -26 -3 13 -14 20 -30 20 -55 0 -40 -77 20 -105 39 -19 80 -13 118
16 l25 20 25 -20 c37 -28 77 -35 118 -17 41 17 61 48 53 82 -8 30 -52 34 -61
5 -8 -26 -32 -33 -58 -19 -47 24 -49 66 -7 115 36 40 37 47 8 67 -26 18 -123
21 -150 5z"/>
<path d="M1131 777 c-19 -23 -9 -60 19 -74 109 -51 652 -46 716 8 19 15 18 53
-2 69 -12 11 -30 11 -92 1 -117 -19 -335 -25 -437 -12 -185 24 -190 24 -204 8z"/>
<path d="M1034 26 c-27 -20 -14 -28 42 -24 46 3 47 4 30 21 -21 21 -46 22 -72
3z"/>
<path d="M1895 20 c-18 -20 -17 -20 41 -20 l59 1 -24 19 c-30 25 -53 25 -76 0z"/>
</g>
</svg>
