<?xml version="1.0" standalone="no"?>
<!DOCTYPE svg PUBLIC "-//W3C//DTD SVG 20010904//EN"
 "http://www.w3.org/TR/2001/REC-SVG-20010904/DTD/svg10.dtd">
<svg version="1.0" xmlns="http://www.w3.org/2000/svg"
 width="900.000000pt" height="900.000000pt" viewBox="0 0 900.000000 900.000000"
 preserveAspectRatio="xMidYMid meet">
<metadata>
Created by potrace 1.10, written by Peter Selinger 2001-2011
</metadata>
<g transform="translate(0.000000,900.000000) scale(0.100000,-0.100000)"
fill="#000000" stroke="none">
<path d="M6975 8150 c-129 -11 -313 -56 -430 -106 -16 -7 -48 -20 -70 -29
-149 -62 -283 -141 -450 -265 -120 -90 -332 -289 -392 -367 -27 -35 -40 -38
-105 -23 -263 59 -670 100 -988 100 -190 0 -472 -20 -640 -46 -53 -7 -110 -14
-126 -14 -17 0 -44 -4 -60 -10 -16 -5 -56 -14 -89 -19 -33 -5 -78 -14 -100
-19 -118 -29 -108 -31 -194 55 -191 192 -428 368 -621 460 -111 52 -157 73
-164 73 -5 0 -22 6 -39 14 -124 54 -325 101 -500 116 -255 23 -478 -27 -632
-140 -193 -142 -281 -345 -305 -700 -24 -343 30 -692 157 -1020 33 -86 144
-308 160 -322 22 -18 15 -52 -26 -134 -153 -309 -246 -628 -307 -1064 -19
-134 -22 -632 -5 -689 6 -19 8 -38 5 -42 -8 -13 -57 -11 -154 6 -47 8 -150 15
-230 17 -132 3 -147 1 -172 -17 -48 -36 -49 -114 -1 -149 19 -14 52 -21 132
-27 363 -26 464 -43 469 -75 5 -35 84 -297 102 -339 60 -139 62 -151 23 -166
-16 -7 -37 -15 -48 -20 -11 -4 -45 -18 -75 -30 -30 -11 -68 -27 -85 -34 -16
-8 -50 -23 -75 -34 -178 -78 -359 -172 -378 -196 -55 -69 10 -169 97 -149 14
4 96 41 181 83 164 80 200 97 345 156 50 20 105 43 123 51 44 19 51 18 62 -8
14 -33 25 -49 131 -193 188 -254 421 -463 739 -661 64 -40 351 -184 366 -184
27 0 34 -35 15 -76 -67 -142 -109 -240 -182 -429 -22 -56 -69 -190 -90 -255
-12 -36 -27 -81 -34 -100 -13 -36 -32 -102 -60 -205 -9 -33 -23 -81 -31 -107
-8 -26 -14 -55 -14 -64 0 -9 -6 -40 -14 -68 -32 -116 -100 -468 -111 -581 -4
-33 -9 -70 -12 -82 -5 -23 -4 -23 105 -23 l110 0 11 44 c6 25 11 70 11 101 0
31 5 66 12 78 6 12 15 60 19 107 9 94 30 208 44 230 5 8 12 32 16 55 10 50 27
121 41 160 6 17 13 48 17 70 4 22 13 50 19 62 7 12 12 38 12 57 0 20 4 44 9
54 12 23 121 351 127 382 5 22 42 119 80 208 84 198 122 280 134 287 6 3 45
-5 88 -19 108 -36 157 -51 230 -70 129 -33 179 -45 260 -60 262 -50 347 -63
517 -76 61 -5 177 -14 259 -21 169 -13 583 -8 776 10 397 37 668 86 980 178
52 15 75 22 160 53 74 26 76 25 97 -22 11 -23 35 -79 53 -123 18 -44 38 -93
45 -110 7 -16 21 -50 30 -75 9 -25 23 -60 31 -78 8 -18 14 -38 14 -45 0 -12
85 -284 101 -322 13 -31 39 -144 39 -168 0 -12 7 -35 15 -51 8 -15 15 -42 15
-60 1 -17 7 -42 15 -56 8 -14 14 -43 15 -66 0 -22 7 -49 15 -60 8 -10 15 -31
15 -46 0 -15 5 -39 11 -55 17 -41 38 -164 48 -273 5 -52 14 -108 20 -123 6
-16 11 -57 11 -93 l0 -64 115 0 116 0 -6 63 c-4 34 -13 94 -21 134 -8 40 -14
85 -14 101 0 16 -4 42 -10 58 -5 16 -14 58 -20 94 -18 111 -52 274 -76 354 -8
26 -14 55 -14 63 0 8 -7 38 -16 66 -8 29 -22 77 -31 107 -9 30 -22 73 -28 95
-7 22 -21 67 -30 100 -10 33 -22 69 -26 80 -5 11 -20 54 -33 95 -14 41 -35
100 -46 130 -12 30 -25 66 -30 80 -12 34 -34 89 -50 125 -31 71 -40 93 -40
100 0 3 -13 33 -30 67 -16 33 -30 64 -30 69 0 5 12 14 28 20 57 22 244 120
337 177 360 220 650 499 850 815 28 43 59 90 70 104 l20 24 75 -24 c41 -14 86
-29 100 -35 14 -5 45 -18 70 -28 25 -10 65 -26 90 -36 25 -11 54 -23 65 -27
24 -10 89 -39 166 -75 32 -15 74 -26 97 -26 35 0 45 5 66 33 31 40 33 85 7
118 -23 30 -101 69 -306 153 -49 21 -99 41 -110 46 -27 11 -185 67 -212 75
-29 8 -29 12 2 81 14 31 25 61 25 66 0 6 6 24 13 41 22 51 70 220 86 302 20
103 15 99 143 118 62 9 171 19 241 22 176 7 211 26 205 111 -3 42 -7 51 -37
71 -41 28 -89 29 -276 8 -71 -8 -151 -15 -177 -15 l-47 0 0 260 c1 260 -11
402 -47 590 -63 326 -143 574 -268 828 -25 51 -46 106 -46 122 0 16 12 51 28
77 60 106 124 254 154 353 5 19 14 39 19 44 5 6 9 18 9 27 0 9 7 39 14 65 60
201 106 502 106 696 0 102 -21 283 -46 393 -45 197 -124 341 -239 436 -165
137 -371 185 -680 159z m250 -206 c227 -19 364 -126 439 -344 50 -146 73 -382
57 -573 -15 -178 -42 -345 -70 -447 -39 -138 -55 -186 -62 -195 -5 -5 -9 -15
-9 -23 0 -8 -6 -28 -14 -45 -8 -18 -24 -54 -36 -82 -34 -79 -52 -114 -107
-208 -64 -106 -66 -134 -21 -215 45 -81 118 -230 118 -242 0 -6 4 -18 10 -28
24 -45 88 -220 111 -307 4 -16 17 -66 29 -110 22 -83 34 -155 49 -290 5 -44
14 -98 19 -120 6 -22 12 -174 14 -337 3 -254 1 -299 -12 -312 -8 -7 -44 -19
-80 -24 -117 -19 -324 -70 -449 -110 -61 -19 -121 -69 -121 -99 0 -11 14 -39
30 -61 l30 -42 68 0 c39 1 77 7 92 15 14 8 39 15 55 15 17 0 41 7 55 15 14 8
40 14 58 15 18 0 49 7 69 15 19 8 47 15 62 15 14 0 39 7 55 15 39 21 50 19 41
-7 -4 -13 -10 -41 -15 -63 -4 -22 -13 -55 -19 -72 -6 -18 -16 -48 -22 -65 -6
-18 -14 -46 -17 -63 -2 -16 -11 -39 -18 -50 -8 -11 -14 -29 -14 -41 0 -12 -7
-27 -15 -34 -8 -7 -15 -21 -15 -31 0 -24 -45 -26 -86 -4 -16 8 -40 15 -54 15
-14 1 -36 7 -50 15 -14 8 -39 14 -56 15 -17 0 -48 7 -67 15 -20 8 -65 15 -101
15 -62 0 -66 -1 -95 -37 -72 -87 -6 -169 154 -192 28 -4 60 -12 72 -19 12 -7
35 -12 50 -12 16 0 38 -7 49 -15 10 -8 29 -15 42 -15 13 0 22 -6 22 -15 0 -45
-210 -328 -343 -461 -247 -249 -552 -444 -927 -592 -76 -29 -100 -38 -200 -71
-107 -36 -251 -75 -350 -96 -41 -9 -103 -23 -137 -31 -34 -8 -73 -14 -88 -14
-15 0 -64 -7 -109 -15 -235 -43 -339 -49 -781 -49 -280 1 -460 5 -515 13 -47
7 -110 14 -140 17 -64 5 -223 29 -330 49 -41 8 -86 16 -100 18 -84 14 -410
105 -478 133 -18 8 -38 14 -45 14 -14 0 -124 44 -134 54 -3 3 -12 6 -19 6 -12
0 -130 52 -214 94 -155 77 -319 178 -415 254 -5 4 -38 29 -72 55 -100 76 -228
203 -295 291 -34 44 -70 90 -81 101 -27 29 -97 138 -97 151 0 17 21 31 55 37
34 5 93 25 115 39 8 5 22 11 31 14 22 8 49 57 49 91 0 37 -34 77 -80 97 -30
12 -39 12 -60 0 -14 -7 -36 -14 -50 -14 -14 0 -36 -7 -50 -15 -14 -8 -37 -14
-52 -15 -15 0 -34 -8 -44 -17 -15 -16 -17 -16 -31 3 -8 10 -17 31 -20 46 -3
15 -12 33 -19 39 -8 6 -14 20 -14 31 0 11 -6 32 -14 46 -17 34 -36 87 -46 132
-5 19 -12 45 -15 58 -7 21 -6 22 19 12 15 -5 42 -10 61 -10 18 0 46 -7 61 -15
16 -8 43 -15 60 -15 17 0 45 -7 62 -15 21 -11 53 -15 104 -13 70 3 73 4 95 37
13 19 23 44 23 55 0 30 -21 72 -42 85 -31 19 -276 81 -408 103 -72 12 -87 20
-102 58 -14 32 -11 677 3 722 6 18 14 78 19 133 5 55 16 132 25 170 8 39 20
90 25 114 6 25 15 59 20 75 5 17 19 63 31 101 11 39 25 79 30 90 5 11 25 63
44 115 20 52 67 158 106 235 38 78 69 147 69 153 0 14 -29 74 -39 82 -9 6 -91
145 -113 190 -45 93 -104 251 -133 355 -9 33 -20 76 -26 95 -8 33 -20 97 -39
216 -27 171 -19 508 15 644 32 129 83 227 150 288 159 145 399 177 755 100 52
-11 100 -24 105 -28 6 -4 26 -11 45 -15 19 -4 40 -11 45 -14 6 -4 33 -16 60
-26 99 -36 254 -118 368 -194 130 -88 227 -169 358 -301 139 -141 172 -161
236 -143 85 24 131 35 183 43 30 4 68 13 83 19 16 6 47 11 70 11 24 0 67 7 97
15 111 30 271 39 685 40 413 0 545 -8 676 -41 31 -8 75 -14 97 -14 22 0 59 -7
82 -15 23 -8 59 -15 80 -15 21 0 54 -7 73 -15 84 -35 131 -14 229 102 107 126
198 214 349 338 79 65 250 170 359 221 100 47 118 54 128 54 5 0 23 7 38 15
16 8 39 15 51 15 12 0 24 4 27 9 4 5 25 12 49 16 23 3 54 11 69 16 29 12 254
38 278 33 8 -1 51 -6 95 -10z"/>
<path d="M2985 5194 c-100 -13 -180 -33 -245 -61 -52 -22 -104 -47 -110 -53
-3 -3 -26 -18 -52 -33 -69 -40 -211 -179 -262 -256 -64 -97 -146 -260 -146
-291 0 -15 -7 -45 -16 -66 -23 -54 -13 -315 15 -424 24 -92 41 -142 52 -155 5
-5 9 -17 9 -26 0 -19 39 -92 52 -97 4 -2 8 -8 8 -14 0 -13 56 -86 91 -118 214
-198 446 -288 706 -277 163 7 261 32 400 104 158 80 265 175 365 323 48 71
108 189 108 212 0 8 4 18 9 24 33 35 49 377 23 499 -24 110 -68 213 -138 320
-32 50 -119 144 -179 195 -30 26 -181 120 -191 120 -3 0 -20 6 -37 14 -77 34
-141 47 -332 70 -16 2 -75 -3 -130 -10z m286 -180 c130 -39 198 -72 292 -144
310 -238 373 -695 143 -1040 -72 -107 -228 -233 -351 -282 -108 -43 -158 -51
-305 -51 -111 0 -154 4 -184 17 -21 9 -45 16 -52 16 -20 0 -141 58 -188 91
-91 62 -172 152 -225 252 -43 81 -59 128 -76 227 -18 107 -18 163 0 270 36
214 137 382 306 510 64 48 208 119 246 121 10 0 34 7 53 14 52 20 273 19 341
-1z"/>
<path d="M3040 4770 c-78 -22 -112 -37 -165 -72 -161 -107 -245 -268 -245
-468 0 -150 26 -228 114 -340 221 -286 686 -248 869 70 56 97 72 161 71 291 0
117 -9 157 -52 249 -103 216 -362 334 -592 270z"/>
<path d="M5960 4748 c-146 -63 -240 -118 -375 -220 -35 -27 -189 -179 -225
-223 -29 -35 -93 -130 -109 -162 -20 -38 -13 -97 13 -126 45 -48 63 -46 311
34 17 5 83 14 148 20 149 15 309 0 415 -37 79 -27 96 -26 136 11 21 19 26 33
26 71 0 39 -5 51 -31 75 -17 16 -36 29 -41 29 -6 0 -24 6 -41 14 -76 33 -177
48 -337 48 -97 0 -173 -5 -195 -12 -20 -7 -39 -9 -42 -6 -19 18 219 200 333
255 128 61 133 64 148 101 18 45 3 86 -44 118 -36 24 -52 26 -90 10z"/>
<path d="M4470 3562 c-19 -7 -12 -182 10 -245 27 -76 37 -93 85 -145 45 -49
96 -79 170 -98 163 -44 334 34 414 187 28 53 34 76 35 132 1 62 -1 70 -24 87
-25 19 -74 26 -105 14 -19 -8 -55 -75 -55 -103 0 -29 -35 -84 -72 -111 -28
-21 -44 -25 -103 -25 -58 0 -76 4 -104 24 -48 34 -74 99 -81 200 l-5 84 -77 1
c-43 1 -82 0 -88 -2z"/>
<path d="M340 1855 c-109 -21 -214 -71 -294 -139 l-46 -38 1 -197 c0 -144 3
-189 11 -171 76 186 182 292 338 338 121 36 283 14 383 -53 68 -44 76 -52 118
-105 74 -92 116 -222 125 -380 6 -96 -2 -192 -32 -395 -20 -137 -30 -470 -15
-545 6 -30 16 -81 22 -112 l10 -58 108 0 108 0 -14 63 c-33 153 -35 177 -30
367 2 107 9 218 15 245 15 67 42 326 42 395 -1 66 -32 255 -54 323 -65 202
-214 364 -400 433 -110 42 -272 53 -396 29z"/>
</g>
</svg>
