<?xml version="1.0" standalone="no"?>
<!DOCTYPE svg PUBLIC "-//W3C//DTD SVG 20010904//EN"
 "http://www.w3.org/TR/2001/REC-SVG-20010904/DTD/svg10.dtd">
<svg version="1.0" xmlns="http://www.w3.org/2000/svg"
 width="300.000000pt" height="300.000000pt" viewBox="0 0 300.000000 300.000000"
 preserveAspectRatio="xMidYMid meet">
<metadata>
Created by potrace 1.10, written by Peter Selinger 2001-2011
</metadata>
<g transform="translate(0.000000,300.000000) scale(0.050000,-0.050000)"
fill="#000000" stroke="none">
<path d="M1431 5394 c-262 -148 -364 -796 -230 -1460 l43 -216 -61 -184 c-72
-219 -103 -392 -103 -588 l0 -144 -95 -13 c-221 -30 -305 -66 -305 -129 0 -74
46 -84 219 -49 178 36 221 30 221 -29 0 -22 21 -98 46 -168 l47 -128 -130 -57
c-155 -67 -204 -111 -189 -167 17 -66 75 -68 200 -6 189 96 191 96 260 -1 60
-83 229 -255 323 -330 l47 -37 -92 -254 c-170 -468 -325 -1037 -363 -1329
l-14 -105 130 0 130 0 14 95 c48 333 365 1416 421 1438 15 5 91 -13 169 -41
517 -187 1256 -195 1780 -19 139 46 151 47 174 16 73 -100 364 -1105 397
-1375 l15 -114 127 0 c151 0 146 -13 89 266 -70 340 -141 597 -272 987 -71
210 -129 387 -129 392 0 5 66 63 146 130 81 66 187 174 235 241 101 137 94
136 296 38 133 -64 185 -61 200 15 10 52 -48 103 -190 163 -71 30 -126 64
-122 76 17 59 101 323 104 326 1 2 68 -10 148 -26 156 -32 203 -20 203 52 0
61 -33 76 -285 129 -55 12 -55 12 -55 186 -1 200 -36 392 -112 601 -52 143
-52 148 -21 270 114 460 91 1090 -53 1372 -218 430 -939 188 -1308 -440 -34
-57 -41 -60 -123 -48 -112 17 -579 16 -669 -1 -68 -12 -73 -9 -151 106 -321
474 -821 725 -1112 559z m458 -272 c167 -82 342 -257 475 -475 120 -196 140
-211 247 -186 161 38 531 44 737 13 243 -38 224 -45 332 141 262 450 771 735
893 500 131 -254 141 -760 23 -1236 l-42 -171 63 -162 c68 -179 123 -452 123
-618 0 -122 7 -118 -224 -136 -257 -20 -436 -82 -436 -152 0 -76 52 -89 206
-53 79 19 206 40 282 47 l138 12 -14 -58 c-21 -89 -76 -228 -90 -228 -6 0 -83
14 -169 30 -244 47 -329 42 -345 -21 -18 -73 8 -90 175 -111 81 -10 173 -25
204 -34 l57 -15 -96 -107 c-620 -690 -2257 -678 -2810 20 -78 99 -81 96 144
129 203 31 225 42 215 112 -10 70 -193 72 -471 4 -50 -12 -92 54 -124 194
l-19 84 138 -12 c76 -7 194 -26 263 -43 189 -44 261 -19 224 78 -21 54 -334
132 -531 132 -126 0 -145 35 -127 227 18 196 60 371 129 543 l58 146 -40 127
c-143 460 -109 1233 59 1337 57 36 216 9 353 -58z"/>
<path d="M2110 3291 c-187 -68 -283 -305 -133 -327 31 -5 54 12 85 65 91 153
245 154 335 2 59 -101 163 -88 163 20 0 169 -261 309 -450 240z"/>
<path d="M3725 3298 c-142 -41 -270 -242 -199 -313 44 -44 130 -17 146 46 36
145 328 138 328 -8 0 -41 94 -73 129 -43 91 75 -34 276 -198 318 -102 25 -117
25 -206 0z"/>
<path d="M2904 2849 c-101 -71 -11 -209 138 -209 159 0 237 157 108 217 -73
32 -193 29 -246 -8z"/>
<path d="M2484 2556 c-64 -64 67 -276 171 -276 31 0 45 -21 62 -87 87 -343
640 -326 643 20 0 31 26 56 95 90 164 81 222 267 83 267 -32 0 -56 -18 -74
-56 -58 -121 -219 -128 -324 -14 -79 85 -153 104 -174 45 -53 -149 -269 -170
-349 -34 -42 71 -91 87 -133 45z m553 -322 l3 103 80 -33 c130 -55 76 -204
-75 -204 -159 0 -233 134 -109 198 l74 38 12 -103 11 -103 4 104z"/>
</g>
</svg>
