<?xml version="1.0" standalone="no"?>
<!DOCTYPE svg PUBLIC "-//W3C//DTD SVG 20010904//EN"
 "http://www.w3.org/TR/2001/REC-SVG-20010904/DTD/svg10.dtd">
<svg version="1.0" xmlns="http://www.w3.org/2000/svg"
 width="900.000000pt" height="900.000000pt" viewBox="0 0 900.000000 900.000000"
 preserveAspectRatio="xMidYMid meet">
<metadata>
Created by potrace 1.10, written by Peter Selinger 2001-2011
</metadata>
<g transform="translate(0.000000,900.000000) scale(0.100000,-0.100000)"
fill="#000000" stroke="none">
<path d="M1845 7690 c-22 -5 -60 -9 -85 -10 -25 0 -54 -7 -64 -15 -11 -8 -30
-15 -42 -15 -13 0 -26 -5 -29 -11 -4 -5 -17 -15 -28 -20 -12 -5 -33 -16 -46
-23 -32 -19 -150 -136 -162 -161 -5 -11 -18 -33 -28 -50 -11 -16 -29 -50 -41
-75 -11 -25 -28 -58 -35 -73 -8 -16 -15 -36 -15 -46 0 -9 -7 -26 -15 -37 -8
-10 -15 -32 -15 -49 0 -16 -7 -41 -15 -55 -8 -14 -14 -39 -15 -56 0 -17 -7
-48 -15 -67 -8 -20 -15 -56 -15 -79 0 -24 -7 -77 -17 -118 -24 -112 -24 -845
0 -938 23 -85 23 -205 0 -223 -27 -23 -223 -289 -223 -303 0 -2 -16 -28 -36
-57 -20 -30 -43 -67 -50 -84 -14 -28 -20 -41 -44 -82 -6 -10 -13 -25 -16 -33
-3 -8 -10 -22 -15 -30 -5 -8 -12 -22 -15 -30 -9 -24 -35 -83 -50 -113 -8 -16
-14 -36 -14 -45 0 -9 -7 -26 -15 -36 -8 -11 -15 -31 -15 -45 0 -14 -7 -35 -15
-45 -8 -11 -15 -30 -15 -42 0 -12 -7 -38 -15 -57 -8 -20 -15 -45 -15 -56 0
-11 -13 -40 -30 -64 -16 -25 -30 -49 -30 -53 0 -5 -13 -36 -29 -69 -51 -109
-77 -171 -91 -220 -4 -16 -13 -43 -18 -60 -6 -16 -18 -57 -27 -90 -9 -33 -23
-81 -31 -106 -9 -31 -14 -94 -14 -188 0 -138 1 -144 30 -202 16 -33 39 -72 49
-85 16 -21 19 -35 14 -77 -3 -29 -12 -64 -19 -79 -8 -15 -14 -48 -14 -73 0
-26 -8 -85 -17 -132 -14 -74 -15 -95 -4 -152 7 -36 15 -81 18 -99 10 -60 76
-166 128 -207 19 -14 38 -25 43 -25 22 0 42 -39 42 -83 0 -26 -4 -47 -9 -47
-7 0 -111 -153 -111 -164 0 -2 -16 -28 -36 -57 -20 -30 -43 -67 -51 -84 -7
-16 -22 -43 -33 -60 -11 -16 -22 -37 -26 -45 -3 -8 -9 -22 -14 -30 -5 -8 -18
-34 -30 -57 -11 -24 -29 -62 -40 -85 -12 -24 -25 -50 -29 -58 -4 -8 -16 -33
-25 -55 -10 -22 -24 -53 -32 -68 -8 -16 -14 -37 -14 -47 0 -9 -7 -23 -15 -30
-8 -7 -15 -22 -15 -34 0 -12 -5 -27 -11 -33 -6 -6 -14 -26 -19 -44 -9 -36 -25
-85 -45 -134 -53 -129 -50 -86 -53 -722 l-3 -593 60 0 59 0 6 38 c3 20 8 82
11 137 7 117 30 302 51 396 8 37 14 76 14 88 0 12 7 49 16 84 8 34 22 89 31
122 8 33 21 82 29 109 8 26 14 54 14 62 0 7 6 28 14 46 8 18 28 78 46 133 17
55 35 109 40 120 5 11 19 45 31 75 51 130 62 155 146 325 70 140 110 217 141
267 9 15 41 67 71 115 30 48 75 115 100 148 l46 60 -3 137 c-3 104 0 150 13
195 9 33 15 73 13 89 -3 25 -8 29 -36 32 -19 2 -54 -4 -79 -12 -42 -14 -49
-14 -80 1 -43 20 -73 77 -73 138 0 121 74 414 130 517 45 82 39 137 -13 124
-15 -3 -39 -9 -54 -12 -41 -11 -91 21 -99 63 -16 84 43 348 112 500 8 17 14
34 14 38 0 4 34 75 75 157 41 82 75 158 75 168 0 11 4 29 9 42 5 13 19 55 31
93 12 39 28 84 36 102 8 17 14 34 14 38 0 14 98 206 151 296 94 157 202 306
297 408 39 42 54 80 49 120 -3 20 -10 72 -16 116 -6 44 -15 109 -21 145 -30
180 -27 698 5 905 55 358 141 551 278 627 37 20 55 23 157 23 94 0 127 -4 178
-23 337 -120 648 -381 1021 -856 101 -128 124 -144 196 -127 182 43 307 68
430 85 282 40 379 46 740 46 360 0 483 -7 760 -46 138 -19 224 -35 441 -84 83
-18 105 -3 220 146 54 71 101 131 104 134 3 3 38 44 78 92 105 124 280 289
413 389 62 47 121 88 129 92 8 4 31 17 50 28 219 131 425 166 567 98 147 -71
242 -285 297 -674 22 -150 22 -585 1 -745 -16 -120 -39 -258 -56 -347 -12 -63
1 -97 61 -163 79 -86 220 -281 287 -395 24 -43 143 -282 143 -289 0 -4 6 -22
14 -39 8 -18 24 -63 36 -102 12 -38 26 -80 31 -93 5 -13 9 -32 9 -43 0 -11 27
-75 61 -142 33 -67 67 -137 75 -155 7 -18 20 -47 28 -65 15 -34 64 -184 89
-277 20 -71 31 -180 23 -223 -5 -25 -15 -39 -40 -52 -32 -17 -37 -18 -83 -3
-46 16 -49 16 -65 -3 -16 -19 -15 -24 18 -102 74 -171 134 -411 134 -527 -1
-68 -32 -128 -76 -146 -34 -14 -41 -14 -80 1 -24 9 -58 15 -76 13 -29 -3 -33
-7 -36 -37 -2 -18 4 -56 13 -84 13 -40 16 -81 13 -191 l-3 -141 46 -60 c25
-33 70 -100 100 -148 30 -48 62 -100 71 -115 35 -57 191 -363 224 -440 7 -18
20 -47 27 -65 27 -62 39 -92 47 -117 5 -14 18 -50 30 -80 30 -78 55 -158 106
-330 7 -25 19 -72 28 -105 8 -33 22 -88 30 -122 9 -35 16 -72 16 -84 0 -12 7
-51 15 -88 19 -86 33 -199 45 -341 5 -63 12 -141 16 -172 l6 -58 69 0 69 0 0
569 c0 496 -2 570 -15 575 -9 3 -15 18 -15 36 0 17 -5 41 -12 53 -6 12 -15 35
-19 52 -13 50 -35 105 -47 117 -7 7 -12 20 -12 30 0 9 -6 32 -14 50 -8 18 -22
53 -31 78 -9 25 -23 57 -31 72 -8 14 -14 33 -14 41 0 8 -7 20 -15 27 -8 7 -15
23 -15 35 0 12 -7 28 -15 35 -8 7 -15 18 -15 24 0 6 -18 45 -39 86 -22 41 -51
98 -66 125 -14 28 -34 64 -45 80 -10 17 -29 50 -41 75 -13 24 -42 73 -66 107
-24 35 -43 66 -43 69 0 3 -13 23 -30 44 -36 45 -41 107 -12 133 10 10 23 17
28 17 5 0 31 19 56 43 49 44 108 144 108 182 0 12 7 39 15 58 17 41 19 137 4
212 -5 28 -13 79 -18 115 -5 36 -14 80 -20 98 -32 93 -32 93 -4 131 15 19 39
59 55 90 27 53 28 60 28 200 -1 101 -5 158 -15 186 -8 22 -15 51 -15 65 0 14
-7 38 -15 54 -8 15 -15 40 -15 55 0 14 -7 35 -15 45 -8 11 -15 31 -15 45 0 14
-7 35 -15 45 -8 11 -15 30 -15 42 0 12 -7 27 -15 34 -8 7 -15 19 -15 27 0 13
-15 48 -41 93 -5 8 -12 22 -15 30 -21 50 -47 101 -55 106 -5 3 -9 17 -9 32 -1
15 -7 38 -15 52 -8 14 -15 39 -15 55 0 17 -7 39 -15 49 -8 11 -15 30 -15 42 0
12 -6 35 -14 51 -8 15 -21 44 -29 63 -32 78 -46 108 -81 180 -40 80 -50 100
-66 128 -6 9 -13 24 -17 32 -4 8 -18 33 -32 55 -14 22 -30 47 -36 57 -43 69
-99 148 -106 148 -5 0 -9 6 -9 13 0 6 -27 44 -60 82 -66 77 -73 104 -45 180 8
22 14 68 15 102 0 34 7 88 15 120 21 82 21 690 0 778 -8 33 -14 82 -15 108 0
26 -7 64 -15 84 -8 19 -15 52 -15 72 -1 20 -7 47 -15 61 -8 14 -15 39 -15 55
0 17 -7 39 -15 49 -8 11 -15 28 -15 37 0 15 -15 52 -42 99 -4 8 -10 21 -13 28
-13 32 -17 39 -35 67 -11 17 -23 37 -27 45 -4 8 -17 26 -29 40 -13 14 -33 36
-46 50 -51 55 -191 150 -222 150 -9 0 -29 8 -43 17 -39 26 -362 25 -412 0 -19
-9 -46 -17 -60 -17 -14 0 -35 -7 -45 -15 -11 -8 -28 -15 -37 -15 -15 0 -52
-15 -99 -42 -8 -4 -22 -11 -30 -14 -8 -3 -22 -10 -30 -15 -8 -5 -27 -14 -42
-20 -16 -6 -28 -14 -28 -18 0 -3 -13 -12 -28 -19 -24 -10 -105 -65 -147 -100
-5 -4 -48 -37 -95 -72 -99 -76 -345 -317 -414 -408 -27 -35 -60 -75 -73 -90
-14 -15 -43 -50 -64 -79 l-38 -51 -48 13 c-77 21 -162 37 -243 44 -42 4 -81
11 -89 15 -7 4 -65 12 -129 17 -64 4 -148 13 -187 18 -115 17 -853 14 -960 -4
-49 -8 -119 -15 -155 -15 -36 0 -87 -7 -114 -15 -27 -8 -68 -15 -91 -15 -24 0
-62 -7 -85 -15 -23 -8 -58 -15 -77 -15 -18 0 -49 -7 -69 -15 -32 -13 -36 -13
-52 4 -24 25 -91 106 -116 140 -62 83 -314 344 -413 427 -68 56 -211 164 -218
164 -4 0 -22 12 -41 26 -40 31 -96 63 -174 100 -30 15 -67 33 -82 40 -14 8
-34 14 -45 14 -10 0 -27 7 -37 15 -11 8 -30 15 -43 15 -13 0 -36 6 -51 14 -15
7 -65 16 -112 20 -47 3 -94 8 -105 10 -11 2 -38 0 -60 -4z"/>
<path d="M3225 4566 c-61 -31 -71 -39 -115 -96 -72 -93 -93 -154 -93 -275 1
-185 80 -318 227 -379 113 -47 262 13 340 138 50 78 69 148 69 246 0 99 -21
171 -69 246 -65 99 -125 135 -234 140 -65 4 -82 1 -125 -20z"/>
<path d="M5670 4531 c-131 -48 -240 -136 -308 -249 -58 -95 -38 -181 45 -198
47 -9 87 17 124 83 43 74 82 113 150 148 49 26 64 29 159 29 92 1 111 -2 153
-24 65 -33 122 -91 154 -157 37 -74 90 -101 146 -72 63 32 72 90 28 178 -62
126 -174 220 -311 263 -74 24 -275 23 -340 -1z"/>
<path d="M4430 3564 c-6 -14 -10 -43 -10 -64 0 -126 -54 -220 -155 -269 -131
-65 -301 -29 -372 76 -18 27 -33 59 -33 71 0 30 -51 82 -80 82 -26 0 -61 -18
-77 -39 -24 -31 -15 -109 19 -178 48 -98 137 -166 270 -207 32 -10 60 -22 63
-27 3 -4 10 -44 15 -88 23 -203 160 -353 353 -386 171 -30 366 49 443 180 37
64 74 172 74 216 0 69 11 82 91 108 134 44 212 108 264 216 37 78 41 116 19
154 -26 44 -66 58 -110 38 -34 -17 -47 -37 -58 -88 -9 -44 -50 -93 -106 -126
-49 -30 -61 -33 -136 -33 -123 0 -216 46 -271 133 -21 34 -27 56 -31 131 -6
124 -8 126 -93 126 -65 0 -70 -1 -79 -26z m132 -430 c29 -25 86 -61 126 -80
l72 -34 0 -44 c0 -104 -83 -232 -166 -255 -49 -14 -128 -14 -175 -1 -59 16
-123 80 -148 148 -25 67 -26 150 -1 163 8 4 40 19 70 33 30 13 79 45 108 70
30 25 55 46 57 46 2 0 27 -21 57 -46z"/>
</g>
</svg>
