<?xml version="1.0" standalone="no"?>
<!DOCTYPE svg PUBLIC "-//W3C//DTD SVG 20010904//EN"
 "http://www.w3.org/TR/2001/REC-SVG-20010904/DTD/svg10.dtd">
<svg version="1.0" xmlns="http://www.w3.org/2000/svg"
 width="900.000000pt" height="900.000000pt" viewBox="0 0 900.000000 900.000000"
 preserveAspectRatio="xMidYMid meet">
<metadata>
Created by potrace 1.10, written by Peter Selinger 2001-2011
</metadata>
<g transform="translate(0.000000,900.000000) scale(0.100000,-0.100000)"
fill="#000000" stroke="none">
<path d="M1640 7709 c-136 -38 -218 -81 -306 -161 -193 -177 -305 -441 -369
-873 -23 -151 -23 -575 -1 -735 28 -200 62 -380 91 -480 33 -115 49 -168 61
-200 28 -77 27 -88 -19 -184 -184 -378 -282 -762 -296 -1154 -6 -169 -10 -181
-52 -182 -8 0 -38 -7 -65 -15 -27 -9 -71 -23 -99 -31 -142 -44 -193 -72 -217
-118 -17 -32 -18 -43 -7 -67 6 -16 25 -39 41 -50 37 -27 71 -23 202 24 115 42
180 57 196 47 6 -4 15 -38 21 -76 16 -115 57 -290 85 -367 20 -53 18 -76 -8
-86 -129 -51 -259 -109 -284 -128 -64 -47 -66 -116 -6 -163 33 -26 74 -25 136
4 153 72 236 102 257 94 8 -3 28 -32 44 -64 128 -257 347 -536 580 -740 86
-75 233 -187 298 -227 29 -17 46 -35 43 -43 -3 -7 -29 -46 -59 -86 -29 -40
-71 -102 -93 -137 -21 -35 -47 -75 -56 -90 -10 -14 -22 -35 -28 -46 -6 -11
-21 -38 -33 -60 -60 -104 -91 -162 -131 -243 -89 -178 -138 -289 -207 -467
-44 -111 -128 -363 -154 -455 -20 -75 -30 -108 -40 -133 -7 -16 1 -17 111 -15
l119 3 9 40 c5 22 15 54 22 72 8 17 14 40 14 51 0 11 7 33 15 48 8 16 15 38
15 49 0 11 7 29 15 39 8 11 15 37 15 57 0 21 4 41 10 44 5 3 10 13 10 22 0 8
6 29 14 46 7 18 23 57 35 87 34 84 37 92 60 141 11 25 21 51 21 58 0 6 3 11 8
11 4 0 18 24 31 53 44 97 172 349 182 357 7 6 28 45 58 109 23 47 176 282 210
320 l20 23 113 -55 c62 -30 136 -65 163 -76 28 -12 58 -26 67 -31 10 -6 23
-10 29 -10 6 0 25 -6 42 -14 36 -15 92 -34 182 -61 33 -9 72 -22 87 -27 14 -5
41 -13 60 -18 18 -4 69 -18 113 -30 108 -30 189 -49 256 -60 31 -5 68 -14 83
-20 15 -5 39 -10 54 -10 15 0 59 -6 97 -14 81 -17 243 -39 470 -62 129 -13
234 -15 540 -11 405 5 456 10 496 53 32 34 31 95 -2 131 -24 25 -25 25 -144
19 -315 -16 -503 -18 -680 -7 -215 13 -421 34 -541 56 -45 8 -94 15 -109 15
-15 0 -54 6 -88 14 -34 8 -98 22 -142 31 -114 23 -270 63 -340 87 -16 5 -46
14 -65 18 -33 8 -55 15 -142 46 -208 76 -398 161 -533 239 -33 19 -67 38 -75
42 -29 14 -197 128 -275 187 -116 88 -342 316 -422 426 -139 191 -237 358
-227 385 3 7 24 16 47 20 23 3 56 11 72 16 17 5 57 13 90 18 33 5 89 14 125
19 36 6 133 16 215 22 208 16 208 16 234 51 32 43 31 99 -3 136 l-26 28 -185
-3 c-120 -2 -204 -8 -240 -17 -31 -8 -75 -15 -97 -15 -23 0 -67 -6 -97 -14
-31 -8 -81 -19 -111 -25 -30 -7 -67 -14 -82 -17 -22 -5 -29 -1 -42 24 -9 17
-16 42 -16 55 0 13 -7 32 -15 43 -8 10 -15 35 -15 54 0 19 -7 46 -15 60 -8 14
-14 40 -15 58 0 19 -7 58 -16 88 -8 30 -14 66 -12 81 3 31 12 34 153 53 250
34 411 36 653 11 125 -14 161 -2 185 57 26 65 -5 112 -92 139 -84 26 -641 26
-785 0 -54 -10 -105 -16 -114 -12 -13 5 -14 25 -9 150 4 80 11 155 18 166 6
12 15 53 19 93 13 103 40 224 72 321 5 17 18 64 28 105 22 83 26 95 90 245 4
11 36 77 70 148 l61 128 -16 52 c-9 28 -20 59 -24 67 -4 8 -18 49 -30 90 -12
41 -27 86 -32 100 -25 68 -80 362 -100 534 -14 119 -7 618 9 691 6 28 16 75
22 105 18 94 29 137 45 192 25 80 27 85 83 198 81 162 183 258 330 309 134 46
443 14 584 -60 10 -5 23 -9 29 -9 23 0 287 -135 369 -188 90 -59 227 -161 294
-220 96 -85 253 -255 309 -337 11 -14 34 -33 52 -42 30 -14 40 -14 117 1 45 9
104 21 130 26 26 5 56 13 67 19 11 6 35 11 54 11 19 0 54 7 77 15 23 8 62 15
87 15 24 0 58 6 76 14 90 37 567 52 937 28 162 -10 209 -17 390 -57 36 -8 79
-16 95 -19 59 -10 140 -29 160 -37 11 -4 51 -16 88 -25 64 -15 71 -15 105 1
24 11 56 43 92 90 70 94 271 293 375 371 169 128 332 224 498 295 110 47 274
99 312 99 13 0 36 5 52 11 42 16 229 13 293 -4 171 -47 270 -135 357 -317 24
-52 49 -103 54 -112 8 -17 13 -33 46 -163 19 -75 39 -193 54 -310 13 -106 6
-569 -10 -660 -6 -33 -15 -89 -21 -125 -18 -109 -29 -163 -50 -246 -12 -43
-25 -95 -30 -114 -6 -19 -26 -80 -46 -135 -56 -154 -56 -164 9 -297 68 -139
97 -204 97 -216 0 -5 7 -23 15 -38 8 -16 15 -36 15 -45 0 -8 4 -19 9 -25 5 -5
11 -27 14 -49 2 -22 9 -53 15 -70 5 -16 16 -46 22 -65 7 -19 16 -57 20 -85 4
-27 13 -63 19 -78 6 -16 11 -47 11 -70 0 -22 9 -73 19 -111 24 -89 35 -340 16
-356 -9 -7 -37 -5 -91 7 -66 15 -130 17 -394 17 -341 0 -378 -5 -420 -56 -26
-31 -26 -98 -1 -127 29 -33 66 -39 176 -27 255 26 712 -4 728 -48 3 -6 -2 -33
-9 -61 -8 -27 -18 -70 -23 -95 -15 -79 -35 -157 -72 -279 -7 -24 -19 -45 -26
-48 -7 -3 -31 2 -53 11 -22 9 -54 16 -71 16 -17 0 -40 5 -52 12 -12 6 -53 15
-92 19 -38 4 -90 12 -115 18 -25 5 -79 10 -121 11 -41 0 -102 5 -134 11 -72
13 -139 -2 -173 -40 -20 -22 -23 -33 -18 -71 10 -74 35 -90 152 -100 168 -14
307 -30 354 -40 25 -5 77 -16 115 -25 39 -8 77 -15 86 -15 8 0 23 -6 32 -12
15 -11 15 -16 4 -38 -60 -113 -95 -172 -144 -243 -31 -45 -74 -109 -96 -141
-56 -84 -304 -329 -422 -417 -342 -257 -708 -431 -1145 -544 -36 -9 -88 -23
-116 -31 -28 -8 -60 -14 -71 -14 -38 0 -113 -32 -133 -57 -32 -41 -26 -85 15
-122 38 -33 73 -39 120 -21 14 5 49 14 78 20 68 12 155 34 242 60 39 12 84 25
100 29 52 15 189 62 220 76 17 7 55 21 85 31 50 16 219 90 263 115 10 5 44 24
75 40 81 44 172 99 209 127 40 30 61 26 90 -17 12 -18 32 -45 43 -60 39 -50
106 -146 130 -186 13 -22 27 -42 32 -45 6 -5 60 -101 98 -175 6 -11 26 -47 44
-80 34 -60 226 -443 251 -500 66 -152 75 -173 75 -183 0 -5 7 -23 15 -38 8
-16 15 -37 15 -46 0 -9 5 -20 10 -23 6 -3 10 -21 10 -38 1 -18 7 -43 15 -57 8
-14 14 -34 15 -45 0 -11 7 -33 15 -49 8 -15 15 -37 15 -47 0 -10 6 -33 14 -51
8 -18 18 -51 23 -73 l8 -40 119 -3 c110 -2 118 -1 111 15 -4 10 -14 41 -21 68
-7 28 -20 74 -29 102 -9 29 -22 74 -30 100 -8 27 -30 93 -50 148 -20 55 -40
111 -44 125 -5 14 -14 39 -21 55 -7 17 -16 39 -21 50 -102 249 -174 404 -248
539 -18 32 -44 80 -57 105 -14 25 -34 60 -45 76 -10 17 -23 39 -29 50 -6 11
-18 32 -28 46 -9 15 -35 55 -56 90 -22 35 -58 89 -81 119 -23 30 -53 73 -67
95 -14 22 -39 56 -57 75 -17 19 -31 42 -31 52 0 9 28 39 63 66 57 46 228 216
287 287 115 136 248 336 317 476 18 37 39 69 47 72 15 6 64 -5 101 -22 11 -5
61 -26 110 -46 50 -20 94 -41 99 -46 18 -17 90 -9 115 12 34 28 41 104 13 139
-26 33 -111 76 -271 137 -40 15 -76 34 -79 42 -3 7 2 37 11 65 37 115 73 267
83 346 11 94 17 103 67 95 23 -4 94 -25 157 -47 63 -22 134 -42 157 -45 37 -4
46 -1 73 25 22 23 30 40 30 67 0 47 -12 68 -53 92 -46 28 -222 87 -357 120
l-35 9 -7 174 c-10 254 -43 455 -115 700 -24 83 -44 141 -59 177 -8 17 -14 36
-14 42 0 6 -4 19 -10 29 -5 9 -19 40 -31 67 -19 45 -45 102 -86 192 -14 31 -9
66 26 148 29 69 89 311 115 460 40 231 48 344 43 620 -4 309 -16 407 -74 630
-23 90 -60 190 -105 280 -103 207 -250 344 -438 408 -58 20 -183 37 -263 37
-127 -1 -361 -49 -480 -98 -16 -7 -32 -12 -37 -12 -5 0 -21 -7 -37 -15 -26
-13 -110 -52 -165 -75 -13 -5 -50 -26 -83 -45 -33 -19 -67 -38 -75 -43 -151
-76 -491 -361 -619 -519 -45 -56 -70 -64 -126 -43 -49 19 -260 62 -420 86
-138 20 -445 43 -590 44 -342 1 -822 -57 -1043 -127 -74 -23 -84 -19 -153 60
-254 288 -591 536 -899 662 -36 14 -74 30 -85 34 -67 29 -160 56 -280 81 -119
26 -321 25 -415 -1z"/>
<path d="M2510 6899 c-38 -15 -60 -49 -60 -96 0 -38 5 -47 61 -100 33 -32 85
-91 116 -131 30 -40 67 -78 81 -83 38 -14 85 -3 113 27 55 59 15 154 -127 298
-63 63 -114 97 -146 95 -7 0 -24 -5 -38 -10z"/>
<path d="M6354 6878 c-47 -37 -138 -134 -170 -180 -16 -24 -33 -46 -38 -49 -4
-4 -11 -27 -13 -53 -7 -56 12 -90 63 -111 33 -13 39 -13 72 4 21 10 53 41 72
67 19 27 69 86 112 132 70 74 78 87 78 121 0 80 -108 122 -176 69z"/>
<path d="M3010 5012 c-161 -60 -269 -173 -334 -350 -24 -65 -22 -241 4 -315
67 -190 212 -315 403 -347 97 -16 202 -1 297 43 84 40 193 148 234 232 141
290 8 630 -289 737 -66 24 -250 24 -315 0z"/>
<path d="M5825 4741 c-103 -20 -105 -21 -205 -70 -53 -25 -96 -56 -146 -107
-88 -86 -117 -140 -118 -212 -1 -45 3 -56 24 -73 61 -47 113 -31 169 52 118
173 300 239 523 190 26 -6 55 -14 65 -19 10 -5 36 -18 57 -28 49 -23 165 -135
197 -189 33 -58 57 -75 100 -75 26 0 47 8 68 26 27 22 31 33 31 73 0 26 -9 65
-19 87 -43 88 -179 218 -284 272 -34 18 -66 32 -70 32 -5 0 -23 6 -40 14 -32
14 -208 47 -243 45 -11 -1 -59 -9 -109 -18z"/>
<path d="M4466 3772 c-3 -5 -8 -36 -12 -68 -15 -140 -61 -224 -155 -285 -135
-87 -293 -93 -434 -17 -61 33 -113 117 -114 185 -2 72 -48 112 -114 99 -93
-17 -103 -155 -23 -305 28 -52 117 -133 177 -161 30 -14 57 -29 61 -35 4 -5 8
-43 8 -83 0 -72 16 -162 45 -253 8 -26 15 -52 15 -58 0 -18 63 -143 99 -196
70 -103 192 -202 301 -243 50 -19 177 -42 235 -42 55 0 171 21 225 42 196 74
350 261 413 503 29 113 47 216 47 276 0 48 3 61 18 66 34 13 118 70 158 109
70 67 113 169 114 270 0 44 -5 57 -29 83 -29 31 -59 38 -109 25 -30 -9 -62
-72 -62 -126 -1 -112 -139 -208 -298 -208 -131 0 -255 57 -324 150 -50 66 -60
96 -67 190 l-6 85 -82 3 c-45 1 -84 -1 -87 -6z m323 -779 c66 -23 151 -81 170
-115 14 -24 13 -31 -8 -85 -48 -117 -146 -217 -256 -259 -57 -21 -232 -27
-256 -8 -8 6 -27 14 -43 18 -41 10 -128 69 -171 117 -42 46 -41 63 1 137 68
116 158 177 319 216 41 10 195 -3 244 -21z"/>
<path d="M4225 1894 c-36 -19 -32 -13 -49 -55 -13 -31 -13 -39 1 -67 18 -38
54 -59 138 -84 82 -24 343 -25 424 -2 164 47 212 115 136 191 -40 40 -44 40
-175 4 -122 -34 -269 -28 -395 15 -49 17 -44 17 -80 -2z"/>
<path d="M1969 398 c-21 -23 -59 -99 -59 -121 -1 -7 -9 -30 -20 -52 -11 -22
-19 -54 -20 -71 0 -17 -7 -48 -15 -67 -8 -20 -15 -48 -15 -62 l0 -25 115 0
c110 0 115 1 115 21 0 11 5 29 10 39 6 10 14 45 19 77 5 32 17 87 25 122 27
106 -5 161 -91 161 -31 0 -48 -6 -64 -22z"/>
</g>
</svg>
