<?xml version="1.0" standalone="no"?>
<!DOCTYPE svg PUBLIC "-//W3C//DTD SVG 20010904//EN"
 "http://www.w3.org/TR/2001/REC-SVG-20010904/DTD/svg10.dtd">
<svg version="1.0" xmlns="http://www.w3.org/2000/svg"
 width="900.000000pt" height="900.000000pt" viewBox="0 0 900.000000 900.000000"
 preserveAspectRatio="xMidYMid meet">
<metadata>
Created by potrace 1.10, written by Peter Selinger 2001-2011
</metadata>
<g transform="translate(0.000000,900.000000) scale(0.100000,-0.100000)"
fill="#000000" stroke="none">
<path d="M1650 8567 c-34 -17 -53 -78 -46 -144 3 -28 2 -54 -2 -57 -5 -3 -22
7 -38 22 -122 116 -288 189 -369 162 -19 -6 -42 -21 -50 -33 -22 -32 -19 -109
7 -159 34 -66 83 -141 107 -162 39 -35 27 -46 -52 -46 -80 0 -111 -14 -128
-57 -11 -30 14 -88 59 -137 60 -64 207 -156 273 -170 29 -6 45 -32 31 -50 -5
-6 -12 -20 -15 -31 -3 -11 -15 -45 -27 -75 -25 -64 -49 -148 -60 -205 -4 -22
-12 -60 -18 -85 -23 -93 -42 -251 -53 -434 -16 -271 6 -637 52 -886 6 -30 14
-83 19 -117 4 -34 11 -66 15 -72 3 -6 10 -32 15 -59 8 -42 33 -137 54 -199 6
-18 -4 -34 -51 -85 -144 -157 -173 -191 -248 -288 -54 -68 -156 -221 -189
-280 -11 -19 -30 -53 -42 -75 -62 -109 -132 -269 -153 -350 -5 -16 -13 -41
-19 -55 -10 -25 -30 -93 -53 -185 -7 -27 -15 -87 -17 -132 -3 -78 -2 -82 27
-115 l29 -33 89 2 c56 1 102 7 127 18 50 21 66 9 47 -38 -7 -17 -17 -51 -22
-75 -5 -23 -13 -51 -19 -61 -5 -11 -10 -33 -10 -50 0 -16 -5 -42 -11 -58 -6
-15 -16 -98 -23 -183 -11 -127 -11 -181 0 -300 15 -168 33 -241 72 -289 39
-48 87 -63 145 -46 48 14 115 54 159 93 14 13 31 21 37 18 12 -8 15 -105 3
-122 -4 -6 -14 -14 -22 -18 -77 -36 -327 -218 -454 -330 -87 -77 -160 -164
-188 -227 -23 -52 -23 -61 2 -109 23 -44 80 -80 130 -80 25 0 30 -4 30 -24 0
-14 -5 -28 -11 -31 -5 -4 -15 -17 -20 -28 -5 -12 -18 -35 -28 -52 -11 -16 -29
-48 -41 -70 -12 -22 -36 -65 -53 -95 -16 -30 -40 -75 -53 -101 -15 -30 -74
-95 -167 -185 -163 -159 -307 -311 -395 -419 l-32 -40 0 -321 0 -322 32 -26
c59 -47 161 -121 238 -171 41 -28 77 -52 80 -56 3 -3 34 -23 70 -44 36 -21 67
-42 70 -45 3 -4 37 -25 76 -48 l70 -42 417 0 c229 0 417 3 417 6 0 3 -6 18
-13 32 -19 36 -41 87 -62 142 -9 25 -21 52 -26 60 -5 8 -13 24 -18 35 -5 11
-22 43 -38 70 -16 28 -33 64 -37 80 -4 17 -16 39 -26 50 -10 11 -35 52 -55 90
-21 39 -44 77 -51 86 -8 8 -14 20 -14 25 0 6 -13 22 -28 37 -37 36 -99 37
-171 2 -68 -33 -104 -40 -118 -23 -11 14 -20 46 -33 125 -7 47 -26 110 -50
168 -5 11 -12 31 -16 45 -4 14 -18 42 -30 62 -13 21 -24 40 -24 44 0 3 -16 26
-37 50 l-36 45 40 42 c22 23 76 80 120 126 l81 83 18 -28 c10 -16 27 -38 39
-49 11 -11 38 -43 60 -70 119 -148 393 -390 543 -480 46 -28 107 -71 110 -77
2 -5 8 -8 13 -8 4 0 41 -19 82 -42 82 -48 119 -67 192 -98 28 -12 64 -28 82
-36 17 -8 38 -14 46 -14 9 0 19 -4 22 -10 3 -5 14 -10 23 -10 9 0 30 -7 45
-15 15 -8 49 -19 75 -24 307 -65 290 -63 447 -58 150 5 200 15 269 54 65 36
94 98 76 163 -9 32 -71 89 -97 90 -4 1 -26 9 -48 20 -22 11 -47 19 -55 20 -14
0 -82 22 -125 41 -11 4 -37 15 -58 23 -112 45 -269 165 -362 278 -16 20 -84
98 -150 175 -66 76 -131 152 -144 168 -94 124 -346 353 -455 414 -45 26 -46
26 -46 1 0 -21 -27 -40 -58 -40 -26 0 -33 31 -21 97 9 45 8 58 -5 76 -9 12
-29 40 -44 62 -15 22 -37 48 -49 58 -19 16 -23 28 -23 81 0 57 -3 65 -33 94
-18 18 -43 32 -55 32 -12 0 -22 4 -22 8 0 10 82 81 124 107 18 11 40 28 50 37
28 29 44 21 57 -24 31 -119 85 -178 161 -178 24 0 53 7 64 15 10 8 25 15 32
15 8 0 28 13 45 29 18 15 82 73 142 127 61 54 112 102 115 105 3 3 43 39 90
79 123 106 127 114 68 166 -58 51 -154 47 -266 -11 -29 -16 -55 -26 -58 -23
-3 3 4 21 15 39 12 19 25 44 31 57 19 44 159 248 219 319 35 42 55 73 48 76
-11 4 -76 -17 -132 -43 -11 -5 -60 -25 -110 -46 -49 -21 -110 -48 -134 -61
-24 -13 -50 -23 -58 -23 -7 0 -39 -13 -70 -30 -65 -35 -108 -39 -123 -11 -25
47 -2 80 82 120 26 12 63 33 82 46 32 21 160 85 172 85 5 0 55 21 131 56 17 8
36 14 42 14 6 0 19 4 29 10 9 5 67 25 127 45 128 42 242 96 265 126 3 4 37 22
75 41 189 93 259 176 233 276 -7 27 -18 43 -34 51 -30 13 -425 14 -554 1 -198
-20 -344 -56 -391 -96 -8 -8 -18 -14 -22 -14 -3 0 -37 -21 -74 -47 -86 -59
-311 -283 -353 -351 -17 -29 -36 -52 -42 -52 -12 0 -1 201 13 238 5 12 13 52
19 88 10 60 9 69 -10 100 -27 43 -20 65 31 98 22 15 46 41 54 59 7 18 21 50
30 72 9 22 23 52 31 67 7 14 14 35 14 45 0 28 62 87 168 163 50 36 140 114
199 174 191 192 305 262 488 298 218 42 239 52 251 115 13 69 -18 115 -111
161 -106 53 -182 67 -350 66 -162 -1 -241 -14 -396 -66 -87 -29 -217 -91 -270
-129 -17 -12 -33 -19 -36 -16 -5 5 88 133 147 202 48 56 125 139 202 215 42
42 82 89 88 104 14 39 12 86 -5 120 -8 15 -15 36 -15 45 0 9 -7 29 -15 44 -8
15 -17 45 -21 65 -4 20 -11 45 -16 55 -5 10 -13 39 -18 65 -5 26 -17 81 -25
122 -9 41 -20 107 -26 145 -5 39 -14 90 -20 115 -5 25 -14 145 -20 268 -12
237 0 612 20 666 6 15 11 39 11 53 0 51 59 269 87 323 7 14 13 29 13 34 0 18
52 76 80 91 16 8 45 15 64 15 34 0 146 -25 175 -40 9 -4 39 -18 66 -30 239
-109 507 -384 655 -674 36 -69 35 -86 -3 -69 -60 29 -280 73 -361 73 -67 0
-165 -27 -203 -56 -43 -33 -59 -84 -43 -137 10 -35 75 -132 117 -175 28 -29
15 -40 -54 -47 -178 -16 -313 -87 -329 -172 -14 -77 22 -138 119 -199 44 -29
46 -42 11 -75 -42 -40 -94 -115 -100 -147 -14 -68 59 -143 123 -128 18 4 73
53 151 134 124 128 152 167 152 207 0 36 -41 87 -98 121 -30 17 -47 33 -40 36
7 3 80 6 162 7 166 3 197 12 234 65 12 18 22 46 22 62 0 26 -32 101 -49 114
-15 12 -111 139 -111 147 0 16 222 -28 245 -48 5 -5 15 -9 23 -9 8 0 33 -9 56
-19 23 -11 71 -33 107 -50 111 -52 185 -36 210 48 12 40 -3 145 -22 156 -5 4
-9 13 -9 21 0 23 -81 198 -143 309 -74 133 -207 312 -302 408 -26 26 -44 47
-40 47 9 0 194 -124 220 -147 11 -10 43 -36 70 -57 159 -126 388 -382 524
-587 40 -59 78 -79 152 -79 l64 0 93 -118 c97 -123 184 -252 244 -362 20 -36
49 -88 65 -115 16 -28 40 -72 53 -99 33 -70 105 -141 158 -157 39 -11 48 -11
79 7 69 36 89 130 57 262 -35 147 -46 188 -60 220 -8 18 -14 39 -14 47 0 8 -6
29 -14 47 -8 18 -29 71 -46 118 -18 47 -45 110 -60 142 -52 104 -55 98 50 98
85 0 91 -1 99 -22 5 -13 20 -48 33 -78 26 -58 51 -119 75 -185 8 -22 20 -49
26 -60 6 -11 14 -36 18 -55 4 -19 15 -59 24 -87 9 -29 23 -75 31 -103 8 -27
22 -72 30 -100 8 -27 21 -72 29 -99 34 -121 93 -191 150 -177 110 28 181 301
192 739 7 251 1 235 76 217 23 -5 73 -12 111 -15 l68 -7 -7 -31 c-16 -73 -37
-186 -44 -247 -4 -36 -13 -87 -19 -115 -22 -102 -42 -262 -42 -336 0 -126 52
-211 137 -225 47 -7 77 7 119 55 34 38 118 213 179 371 9 25 23 59 30 75 7 17
16 45 19 62 4 18 12 35 17 38 5 4 9 12 9 20 0 8 5 26 12 42 26 63 47 129 48
145 0 21 30 38 67 38 39 0 46 6 227 188 88 89 205 196 259 239 55 43 105 83
111 88 21 19 244 165 252 165 5 0 -16 -26 -47 -57 -132 -138 -304 -369 -372
-498 -53 -101 -77 -157 -77 -179 0 -57 70 -126 128 -126 15 0 52 9 82 21 30
11 69 25 85 30 17 5 39 13 50 18 50 24 298 62 312 48 3 -4 -29 -42 -72 -85
-112 -110 -131 -149 -106 -214 25 -63 74 -80 273 -94 47 -3 94 -11 104 -19 16
-11 15 -14 -14 -29 -17 -9 -48 -30 -67 -47 -72 -64 -43 -134 128 -311 74 -77
76 -78 125 -78 44 0 54 4 76 31 51 61 43 106 -34 198 -46 54 -49 68 -17 80 42
17 116 91 128 130 36 122 -87 219 -328 258 -18 3 -33 8 -33 12 0 4 31 38 68
77 80 80 102 118 102 171 0 116 -143 167 -402 143 -72 -6 -149 -18 -171 -26
-39 -14 -57 -12 -57 7 0 26 201 271 305 372 109 106 282 229 392 277 26 12 62
28 80 36 17 8 37 14 45 14 8 0 18 4 24 10 15 15 152 33 200 25 36 -5 49 -13
69 -43 14 -20 25 -44 25 -52 0 -9 4 -20 9 -26 10 -9 22 -76 42 -234 13 -98 6
-486 -10 -570 -5 -30 -15 -89 -20 -130 -14 -101 -36 -220 -55 -305 -9 -38 -21
-90 -26 -114 -6 -25 -15 -59 -20 -75 -5 -17 -19 -62 -31 -101 -12 -38 -26 -74
-31 -79 -4 -6 -8 -19 -8 -30 0 -12 -7 -34 -15 -50 -8 -15 -15 -33 -15 -38 0
-11 -23 -66 -49 -118 -9 -19 -23 -54 -31 -78 -20 -65 -3 -100 106 -215 113
-119 249 -286 240 -295 -4 -3 -21 0 -39 7 -94 37 -312 81 -402 80 -59 0 -258
-31 -332 -52 -81 -23 -201 -85 -243 -126 -44 -43 -59 -95 -40 -140 32 -79 106
-101 340 -101 158 0 170 -2 260 -31 103 -33 177 -74 256 -141 163 -139 235
-198 242 -198 4 0 15 -7 26 -15 17 -13 17 -16 -15 -59 -31 -44 -32 -46 -14
-66 10 -11 26 -22 36 -25 28 -9 27 -80 -1 -95 -23 -12 -26 -41 -7 -78 8 -15
21 -42 30 -60 9 -19 17 -41 17 -50 0 -9 7 -30 15 -46 8 -15 15 -36 15 -45 0
-9 6 -36 14 -61 8 -25 19 -70 25 -100 6 -30 13 -65 17 -77 11 -38 -9 -25 -49
32 -72 100 -254 257 -370 320 -116 62 -135 71 -192 89 -33 10 -80 25 -105 34
-34 12 -85 16 -210 17 -185 0 -236 -12 -304 -69 -54 -45 -66 -124 -27 -175 19
-25 45 -32 201 -56 157 -24 425 -81 490 -104 14 -5 59 -19 100 -31 95 -28 160
-49 182 -61 10 -5 23 -9 30 -9 7 0 24 -6 38 -13 14 -7 48 -21 75 -31 146 -54
174 -77 175 -142 0 -45 -17 -61 -48 -45 -9 4 -35 16 -57 26 -22 9 -51 23 -65
29 -14 7 -50 20 -80 29 -30 9 -107 33 -170 53 -158 50 -218 67 -435 120 -81
20 -175 29 -175 17 0 -5 29 -30 64 -56 109 -80 249 -243 341 -397 57 -96 103
-151 165 -198 128 -98 220 -197 220 -237 0 -11 -13 -34 -29 -49 -17 -17 -31
-41 -33 -59 l-3 -30 -25 25 c-47 47 -215 166 -264 188 -44 19 -54 21 -89 10
-22 -6 -53 -26 -69 -43 l-29 -32 7 -132 c7 -130 -4 -231 -37 -368 -6 -22 -15
-58 -20 -80 -6 -22 -14 -44 -20 -49 -5 -6 -9 -16 -9 -23 0 -12 -58 -136 -83
-178 -20 -34 -51 -80 -57 -85 -3 -3 -29 -34 -57 -70 -55 -71 -93 -108 -93 -94
-1 5 -2 77 -3 159 -3 169 -9 191 -74 244 -42 35 -77 39 -113 14 -33 -23 -47
-42 -101 -142 -73 -138 -147 -238 -259 -352 -102 -103 -245 -209 -282 -209
-21 0 -23 8 -38 160 -10 97 -16 122 -38 154 -67 98 -164 65 -288 -95 -39 -51
-109 -178 -147 -269 -32 -74 -73 -222 -82 -292 -3 -26 -10 -50 -16 -53 -12 -8
-118 15 -125 27 -3 4 -12 8 -21 8 -8 0 -31 7 -51 16 -21 8 -50 21 -67 28 -57
25 -240 117 -300 152 -33 19 -69 39 -80 44 -11 6 -32 18 -46 28 -15 9 -50 31
-78 47 -28 17 -51 33 -51 38 0 4 -5 7 -11 7 -6 0 -21 8 -34 18 -12 9 -33 24
-46 32 -30 20 -318 237 -393 297 -50 40 -66 47 -105 47 -54 1 -91 -22 -115
-72 -19 -40 -21 -171 -4 -271 7 -39 9 -73 6 -76 -7 -7 -186 82 -242 120 -21
14 -39 25 -42 25 -13 0 -175 131 -234 189 -94 93 -146 165 -217 301 -47 89
-68 110 -113 110 -100 0 -150 -132 -150 -393 0 -78 -2 -87 -19 -87 -10 0 -24
7 -31 15 -7 8 -17 15 -22 15 -19 0 -143 104 -231 193 -48 49 -110 123 -138
165 -55 85 -139 251 -139 277 0 9 -4 24 -9 34 -23 41 -51 218 -50 303 1 49 0
91 -4 94 -10 10 -52 -21 -134 -101 l-83 -81 0 -61 c0 -34 5 -74 11 -90 7 -15
15 -48 19 -73 8 -49 24 -99 46 -143 8 -16 14 -37 14 -47 0 -9 7 -23 15 -30 8
-7 15 -19 15 -26 0 -14 26 -66 61 -119 10 -16 22 -37 26 -45 7 -18 62 -90 77
-105 6 -5 27 -30 46 -55 31 -39 64 -72 149 -148 14 -13 37 -33 51 -45 38 -35
210 -147 224 -147 8 0 19 -7 26 -15 7 -8 19 -15 27 -15 7 0 25 -7 38 -16 16
-10 49 -17 92 -18 57 -1 73 3 100 23 38 28 58 90 58 178 0 35 0 63 1 63 0 0
34 -33 75 -72 110 -108 208 -188 228 -188 6 0 11 -4 11 -8 0 -5 10 -14 23 -21
12 -6 36 -20 52 -31 17 -11 39 -24 50 -30 11 -6 34 -19 50 -30 17 -11 37 -23
45 -26 8 -3 42 -19 75 -35 33 -16 66 -29 72 -29 6 0 24 -6 40 -14 46 -22 128
-46 159 -46 41 1 102 41 125 84 24 46 24 92 -1 156 -18 46 -28 130 -15 130 4
0 158 -112 230 -167 27 -21 244 -163 249 -163 3 0 24 -13 48 -29 55 -36 135
-80 246 -135 178 -88 229 -109 352 -147 36 -11 86 -26 111 -34 66 -21 178 -19
205 3 40 34 46 53 84 266 6 32 15 67 20 77 6 10 10 25 10 34 0 9 6 31 14 48 8
18 24 58 37 90 13 31 30 64 40 73 16 14 17 9 24 -68 9 -99 33 -141 95 -159
140 -42 439 139 665 401 61 71 64 70 63 -7 -2 -78 15 -120 61 -152 118 -84
378 94 581 398 27 41 51 79 53 85 9 22 38 -21 47 -70 4 -27 13 -69 20 -94 22
-90 33 -143 40 -199 5 -31 13 -85 19 -121 21 -137 33 -260 38 -402 5 -133 4
-148 -11 -148 -9 0 -16 3 -16 8 0 4 -26 22 -59 40 -81 44 -129 44 -175 -3 -40
-40 -38 -28 -61 -340 -8 -121 -20 -240 -25 -265 -5 -25 -13 -71 -18 -103 l-9
-57 168 0 168 0 5 32 c2 18 12 88 22 156 10 67 21 122 26 122 5 0 27 -12 49
-27 26 -17 58 -28 93 -31 45 -4 56 -1 82 21 41 34 59 82 78 207 30 192 17 549
-30 805 -8 44 -14 91 -14 105 0 26 -21 127 -46 216 -8 28 -14 59 -14 70 0 10
-6 36 -14 59 -8 22 -22 67 -31 100 -10 33 -23 76 -30 95 -7 19 -18 51 -24 70
-7 19 -16 50 -21 68 -4 18 -12 38 -17 45 -5 7 -15 31 -23 55 -12 38 -12 45 3
59 16 16 19 15 49 -13 35 -32 134 -108 180 -137 16 -10 47 -17 74 -17 42 0 51
4 83 39 23 25 42 61 53 98 48 167 63 449 32 616 -17 91 -11 122 18 101 28 -21
118 -45 140 -39 53 17 85 53 107 121 18 58 21 92 21 249 0 100 -5 207 -11 236
-6 30 -14 79 -18 109 -9 62 -24 123 -54 223 -23 80 -18 89 46 76 138 -28 186
-15 225 61 29 56 26 109 -20 300 -6 25 -14 61 -18 80 -12 52 -42 137 -95 264
-36 88 -120 252 -170 334 -68 111 -265 370 -355 466 -60 64 -61 66 -45 117 18
56 43 128 54 154 10 24 46 146 84 285 9 30 21 75 28 100 7 25 15 65 19 90 4
25 12 65 18 90 20 84 34 165 42 250 5 47 13 117 19 155 17 111 14 492 -4 615
-17 112 -42 237 -56 284 -15 49 -11 65 19 72 98 21 247 100 314 165 61 61 77
96 59 135 -14 32 -83 63 -138 64 -23 0 -44 3 -46 8 -3 4 24 38 59 76 93 101
136 193 114 245 -13 31 -66 61 -109 61 -62 0 -206 -58 -298 -120 -54 -37 -79
-39 -68 -7 4 12 10 48 12 80 4 51 2 62 -18 83 -18 19 -33 24 -71 24 -79 0
-168 -67 -267 -200 -69 -93 -71 -96 -119 -196 l-40 -80 -63 -18 c-146 -40
-176 -49 -207 -62 -18 -8 -39 -14 -47 -14 -8 0 -31 -7 -52 -16 -21 -9 -54 -23
-73 -31 -19 -8 -48 -21 -65 -28 -43 -18 -224 -109 -262 -131 -292 -171 -580
-394 -777 -601 -67 -71 -89 -76 -182 -49 -91 27 -325 69 -514 92 -190 23 -739
24 -930 0 -174 -21 -319 -44 -398 -62 -35 -8 -67 -12 -72 -9 -5 3 -31 34 -57
68 -158 208 -394 444 -597 597 -59 45 -175 122 -211 140 -11 6 -33 19 -50 29
-74 47 -364 181 -391 181 -7 0 -28 6 -46 14 -56 23 -132 46 -155 46 -21 0 -63
53 -63 79 0 6 -14 41 -32 78 -111 238 -254 369 -348 320z"/>
<path d="M3315 5723 c-11 -3 -24 -9 -29 -14 -6 -5 -19 -9 -31 -9 -11 0 -29 -6
-40 -14 -11 -7 -31 -17 -45 -21 -94 -29 -255 -181 -327 -308 -41 -73 -73 -149
-73 -174 0 -10 -5 -24 -11 -30 -5 -5 -15 -56 -20 -112 -12 -112 1 -315 20
-334 6 -6 11 -19 11 -30 0 -34 73 -174 125 -237 43 -52 122 -125 170 -155 67
-42 201 -105 227 -105 7 0 32 -7 56 -15 60 -21 262 -31 337 -16 109 22 272 82
350 129 101 61 185 173 232 307 45 131 62 282 44 395 -24 155 -30 183 -40 193
-6 6 -11 18 -11 25 0 13 -51 121 -83 177 -47 82 -201 235 -236 235 -6 0 -11 4
-11 8 0 8 -85 50 -175 85 -42 17 -78 21 -235 23 -102 1 -194 0 -205 -3z m300
-223 c3 -6 -4 -14 -17 -19 -43 -17 -120 -120 -134 -178 -4 -15 -11 -33 -15
-39 -9 -11 -19 -52 -39 -154 -5 -25 -9 -85 -9 -135 -1 -155 43 -285 122 -358
106 -100 261 -38 347 139 17 33 30 66 30 73 0 7 7 34 16 61 23 70 16 370 -10
417 -26 48 -10 61 25 21 112 -129 159 -263 159 -449 0 -72 -5 -128 -16 -162
-21 -69 -71 -169 -101 -201 -27 -30 -128 -106 -140 -106 -4 0 -20 -7 -36 -15
-99 -52 -340 -51 -454 1 -17 7 -36 14 -41 14 -19 0 -129 71 -169 108 -72 68
-103 116 -147 225 -20 50 -30 204 -18 287 34 232 209 429 417 470 60 11 223
12 230 0z"/>
<path d="M6065 5269 c-22 -4 -63 -12 -91 -18 -116 -22 -243 -74 -359 -149 -76
-48 -265 -232 -265 -257 0 -8 -4 -15 -8 -15 -13 0 -52 -98 -52 -131 0 -22 10
-41 35 -66 36 -36 36 -36 105 -30 38 3 78 11 90 17 13 7 80 10 198 7 176 -4
258 -15 319 -43 17 -7 35 -14 40 -14 10 0 60 -22 95 -41 10 -5 33 -9 52 -9 47
0 106 54 106 98 0 43 -50 97 -119 128 -31 15 -64 30 -73 35 -17 8 -40 15 -138
39 -110 26 -142 31 -233 34 -54 2 -100 5 -102 8 -7 7 69 60 135 94 63 34 130
59 180 69 19 4 40 11 45 15 6 4 45 10 88 14 88 8 120 19 160 55 21 19 27 34
27 65 0 46 -4 53 -44 84 -23 18 -41 22 -90 21 -33 -1 -79 -5 -101 -10z"/>
<path d="M2115 4555 c-168 -37 -234 -76 -235 -142 0 -25 7 -36 33 -52 30 -18
56 -21 258 -27 293 -9 386 -2 429 34 40 34 46 89 12 125 -60 64 -331 98 -497
62z"/>
<path d="M4580 4538 c-49 -16 -75 -32 -110 -68 -49 -50 -81 -129 -62 -153 5
-6 13 -28 17 -47 11 -48 45 -100 100 -148 48 -42 119 -82 147 -82 50 0 48
-120 -4 -191 -71 -98 -187 -168 -278 -169 -87 -1 -124 -113 -56 -169 23 -19
166 -17 206 4 16 8 34 15 40 15 19 0 113 65 171 118 l55 50 40 -37 c127 -121
330 -156 484 -83 131 62 240 208 240 321 0 44 -4 52 -35 80 -20 17 -46 31 -58
31 -39 0 -77 -41 -99 -105 -36 -110 -112 -165 -228 -165 -95 0 -151 29 -208
109 -27 37 -32 53 -32 102 0 60 15 89 48 89 27 0 115 55 163 102 54 52 88 118
96 185 11 95 -57 172 -189 214 -90 28 -355 27 -448 -3z m418 -188 c31 -21 28
-34 -18 -79 -40 -39 -115 -71 -165 -71 -46 0 -122 31 -164 67 -45 38 -50 52
-23 75 27 24 47 27 202 25 107 -2 151 -7 168 -17z"/>
<path d="M6745 4464 c-65 -10 -166 -48 -189 -71 -36 -35 -43 -79 -19 -112 32
-41 134 -60 333 -60 208 -1 352 18 386 50 65 61 3 127 -167 173 -56 16 -285
29 -344 20z"/>
<path d="M4231 2672 c-25 -25 -31 -39 -31 -75 0 -28 7 -52 18 -65 35 -42 153
-89 327 -131 74 -18 260 -25 340 -12 107 17 179 32 190 41 6 4 23 10 39 14 39
9 80 39 107 77 18 26 20 34 9 60 -7 16 -21 41 -32 54 -26 33 -75 33 -175 -2
-67 -22 -99 -27 -231 -31 -180 -5 -257 9 -411 74 -18 8 -53 17 -77 21 -39 5
-46 2 -73 -25z"/>
<path d="M4413 389 c-67 -19 -105 -106 -68 -155 8 -10 15 -27 15 -37 0 -11 6
-31 13 -45 8 -15 21 -43 29 -62 8 -19 21 -47 28 -62 l13 -28 129 0 c73 0 128
4 128 9 0 6 -18 49 -41 98 -111 238 -128 265 -174 283 -30 11 -29 11 -72 -1z"/>
<path d="M6624 286 c-26 -26 -34 -43 -34 -68 0 -19 -3 -76 -6 -126 l-7 -92
105 0 106 0 7 89 c7 87 5 107 -17 163 -12 32 -64 68 -98 68 -12 0 -37 -15 -56
-34z"/>
<path d="M2445 153 c-49 -8 -98 -18 -107 -24 -10 -5 -23 -9 -31 -9 -34 0 -157
-88 -157 -112 0 -4 293 -8 651 -8 431 0 648 3 644 10 -3 5 -14 10 -23 10 -9 0
-30 7 -45 15 -15 8 -45 17 -65 21 -20 4 -41 10 -47 14 -5 4 -55 17 -110 29
-55 13 -118 27 -140 33 -115 30 -443 42 -570 21z"/>
</g>
</svg>
