<?xml version="1.0" standalone="no"?>
<!DOCTYPE svg PUBLIC "-//W3C//DTD SVG 20010904//EN"
 "http://www.w3.org/TR/2001/REC-SVG-20010904/DTD/svg10.dtd">
<svg version="1.0" xmlns="http://www.w3.org/2000/svg"
 width="300.000000pt" height="300.000000pt" viewBox="0 0 300.000000 300.000000"
 preserveAspectRatio="xMidYMid meet">
<metadata>
Created by potrace 1.10, written by Peter Selinger 2001-2011
</metadata>
<g transform="translate(0.000000,300.000000) scale(0.050000,-0.050000)"
fill="#000000" stroke="none">
<path d="M4493 5802 c-217 -72 -454 -262 -675 -542 -100 -128 -136 -160 -167
-152 -303 74 -838 85 -1157 25 -108 -20 -199 -34 -202 -30 -2 4 -47 67 -99
141 -498 710 -1158 761 -1305 100 -40 -182 -30 -642 20 -896 l32 -162 -88
-188 c-405 -865 -72 -1917 758 -2388 55 -32 103 -59 107 -62 4 -3 -49 -94
-117 -202 -250 -398 -537 -1157 -540 -1431 0 -8 35 -15 79 -15 l78 0 23 115
c103 520 345 1084 620 1449 6 7 84 -12 173 -44 294 -104 626 -158 675 -109 69
69 14 119 -152 136 -424 44 -935 277 -1214 556 -243 242 -300 356 -178 357 94
1 368 121 582 255 l77 47 -79 86 c-418 454 241 1158 704 751 89 -78 72 -91
230 178 160 271 249 363 352 363 122 0 181 -68 446 -517 l122 -207 -59 -50
c-153 -129 -98 -264 64 -157 99 66 90 71 221 -99 268 -346 725 -608 1061 -610
92 0 92 2 0 -137 -102 -155 -348 -397 -509 -501 -175 -113 -176 -113 -37 -339
263 -428 442 -928 510 -1428 13 -95 14 -95 92 -95 90 0 87 -40 18 338 -76 417
-283 953 -486 1257 l-71 105 94 64 c780 531 1063 1630 622 2415 l-42 74 42
246 c158 930 -103 1474 -625 1303z m243 -373 c137 -96 179 -551 74 -802 -37
-89 -63 -85 -250 40 -87 59 -227 138 -310 175 -185 84 -196 110 -103 245 199
288 454 436 589 342z m-3163 -30 c151 -74 411 -388 382 -463 -6 -16 -90 -67
-187 -114 -97 -46 -241 -129 -321 -183 -177 -120 -196 -115 -236 62 -119 523
50 849 362 698z"/>
<path d="M2100 3516 c-346 -96 -298 -617 60 -651 377 -37 503 571 134 645 -35
7 -77 16 -94 19 -16 4 -61 -2 -100 -13z"/>
<path d="M2914 3142 c-141 -29 -150 -130 -19 -212 47 -29 64 -55 64 -97 1 -91
117 -193 217 -193 140 0 302 188 216 251 -48 35 -83 18 -113 -53 -27 -67 -95
-92 -157 -59 -60 32 -52 106 18 181 133 142 20 233 -226 182z"/>
</g>
</svg>
