<?xml version="1.0" standalone="no"?>
<!DOCTYPE svg PUBLIC "-//W3C//DTD SVG 20010904//EN"
 "http://www.w3.org/TR/2001/REC-SVG-20010904/DTD/svg10.dtd">
<svg version="1.0" xmlns="http://www.w3.org/2000/svg"
 width="300.000000pt" height="300.000000pt" viewBox="0 0 300.000000 300.000000"
 preserveAspectRatio="xMidYMid meet">
<metadata>
Created by potrace 1.10, written by Peter Selinger 2001-2011
</metadata>
<g transform="translate(0.000000,300.000000) scale(0.100000,-0.100000)"
fill="#000000" stroke="none">
<path d="M833 2460 c-120 -61 -190 -232 -200 -490 -4 -105 -10 -140 -23 -160
-27 -39 -67 -121 -80 -167 l-13 -42 -61 6 c-49 4 -64 2 -75 -11 -21 -25 1 -42
60 -49 29 -4 53 -8 54 -9 1 -2 0 -38 -3 -80 l-4 -77 -47 -7 c-67 -10 -91 -21
-91 -43 0 -26 22 -32 82 -21 28 6 53 8 55 6 4 -4 32 -114 33 -128 0 -4 -22
-17 -50 -29 -64 -28 -79 -44 -57 -66 15 -15 20 -14 68 5 28 12 55 22 59 22 4
0 24 -28 45 -62 22 -35 65 -90 96 -123 l58 -61 -59 -140 c-74 -178 -139 -371
-183 -544 -55 -213 -55 -190 2 -190 l48 0 27 113 c53 217 233 716 255 704 112
-61 236 -104 386 -134 128 -25 464 -25 585 0 115 24 231 62 314 104 37 19 70
32 73 30 2 -3 23 -47 45 -99 59 -136 144 -391 188 -563 l38 -150 50 -3 50 -3
-15 68 c-45 201 -143 502 -229 702 l-47 111 55 58 c43 45 91 110 134 180 1 2
24 -6 49 -17 57 -25 81 -26 89 -5 9 24 -1 34 -59 59 l-53 24 21 68 20 69 59
-9 c43 -7 62 -7 71 2 20 20 -7 45 -62 58 -29 6 -54 13 -56 15 -2 1 -7 38 -12
81 l-9 77 44 0 c49 0 82 14 82 35 0 23 -21 30 -82 27 l-56 -3 -12 38 c-7 21
-32 76 -55 123 -40 78 -43 90 -38 142 6 66 -11 227 -33 313 -45 173 -135 265
-259 265 -94 0 -230 -76 -342 -192 l-53 -54 -194 1 -194 1 -89 84 c-113 108
-197 153 -292 158 -52 2 -75 -1 -108 -18z m211 -113 c35 -19 93 -66 148 -121
l89 -89 232 -1 232 -1 75 76 c170 171 309 218 383 129 60 -71 98 -240 96 -421
-1 -109 0 -119 25 -155 24 -37 76 -154 76 -172 0 -5 -33 -15 -72 -22 -103 -18
-228 -59 -235 -76 -12 -33 14 -38 89 -17 99 29 228 56 234 51 2 -3 7 -34 11
-70 l6 -64 -154 0 c-152 1 -154 1 -157 -21 -2 -13 0 -23 5 -24 4 0 58 -2 118
-4 61 -3 125 -7 143 -10 33 -6 34 -8 27 -42 -12 -64 -24 -86 -43 -78 -42 16
-191 56 -228 62 -31 4 -42 2 -47 -9 -10 -26 6 -35 123 -67 145 -40 146 -41
128 -74 -21 -41 -97 -128 -152 -175 -156 -133 -458 -213 -750 -198 -366 18
-630 134 -766 338 -22 34 -37 65 -33 69 5 5 67 23 138 42 111 28 130 36 130
52 0 17 -7 20 -50 18 -27 -1 -89 -13 -136 -27 -48 -14 -93 -27 -100 -28 -13
-3 -49 106 -38 116 3 3 72 9 155 13 140 8 149 9 149 28 0 19 -7 20 -158 20
l-158 0 6 60 c4 33 11 64 15 68 9 10 149 -17 227 -44 31 -10 64 -19 73 -19 21
0 32 21 20 39 -10 17 -99 46 -203 67 -45 9 -88 18 -94 20 -17 5 16 89 68 172
36 58 39 67 33 115 -7 61 9 217 31 299 29 114 86 201 138 211 39 8 90 -4 151
-36z"/>
<path d="M1034 1679 c-33 -9 -94 -60 -94 -77 0 -6 7 -17 15 -26 17 -16 39 -12
67 11 26 23 88 33 130 22 25 -6 49 -23 70 -50 40 -49 71 -50 76 -3 4 40 -36
90 -93 115 -43 20 -119 23 -171 8z"/>
<path d="M1835 1678 c-73 -25 -135 -102 -114 -140 15 -27 45 -22 69 12 46 64
131 79 206 35 48 -28 74 -24 74 10 0 65 -142 115 -235 83z"/>
<path d="M1455 1503 c-29 -8 -65 -44 -65 -66 0 -19 45 -70 70 -79 12 -4 12 -9
0 -37 -19 -46 -63 -71 -126 -71 -66 0 -100 25 -115 85 -11 44 -27 59 -54 49
-22 -9 -27 -38 -15 -83 12 -44 49 -87 98 -113 25 -13 32 -24 32 -46 0 -42 50
-132 90 -164 70 -55 182 -61 251 -15 51 35 96 100 110 162 8 36 18 57 30 60
76 24 139 157 93 196 -22 18 -47 0 -56 -42 -3 -19 -20 -46 -39 -62 -29 -27
-37 -29 -92 -25 -52 4 -64 9 -88 36 -37 41 -37 67 0 86 49 26 57 85 15 112
-26 17 -103 27 -139 17z m161 -368 l35 -14 -21 -40 c-11 -23 -33 -47 -50 -56
-61 -32 -161 -9 -189 43 -8 15 -6 24 12 40 12 11 33 25 47 31 38 15 126 13
166 -4z"/>
<path d="M797 73 c-4 -3 -7 -21 -7 -40 0 -31 2 -33 35 -33 29 0 35 4 35 21 0
44 -39 76 -63 52z"/>
<path d="M2161 61 c-6 -11 -11 -29 -11 -40 0 -17 6 -21 36 -21 35 0 35 1 32
38 -2 29 -8 38 -25 40 -14 2 -26 -4 -32 -17z"/>
<path d="M1167 43 c-4 -3 -7 -15 -7 -25 0 -14 8 -18 35 -18 38 0 40 2 25 31
-10 19 -40 26 -53 12z"/>
<path d="M1791 31 c-16 -29 -14 -31 25 -31 31 0 35 3 32 23 -4 29 -43 35 -57
8z"/>
</g>
</svg>
