<?xml version="1.0" standalone="no"?>
<!DOCTYPE svg PUBLIC "-//W3C//DTD SVG 20010904//EN"
 "http://www.w3.org/TR/2001/REC-SVG-20010904/DTD/svg10.dtd">
<svg version="1.0" xmlns="http://www.w3.org/2000/svg"
 width="900.000000pt" height="900.000000pt" viewBox="0 0 900.000000 900.000000"
 preserveAspectRatio="xMidYMid meet">
<metadata>
Created by potrace 1.10, written by Peter Selinger 2001-2011
</metadata>
<g transform="translate(0.000000,900.000000) scale(0.100000,-0.100000)"
fill="#000000" stroke="none">
<path d="M2181 8341 c-82 -33 -119 -84 -191 -261 -12 -30 -28 -68 -35 -85 -37
-84 -45 -104 -45 -114 0 -6 -4 -19 -10 -29 -13 -22 -102 -296 -124 -382 -10
-36 -22 -80 -27 -97 -6 -18 -14 -54 -19 -80 -5 -27 -16 -79 -24 -118 -8 -38
-19 -99 -26 -135 -6 -36 -16 -92 -21 -125 -10 -57 -18 -127 -39 -335 -12 -121
-12 -524 0 -655 5 -55 14 -149 19 -210 5 -60 15 -135 21 -165 26 -132 42 -208
52 -245 5 -22 14 -67 20 -100 9 -60 9 -61 -35 -150 -45 -89 -67 -139 -101
-225 -10 -25 -22 -54 -27 -65 -5 -11 -22 -63 -39 -115 -17 -52 -40 -123 -51
-157 -20 -61 -59 -141 -107 -218 -28 -45 -186 -205 -202 -205 -6 0 -24 -10
-40 -22 -57 -42 -28 -116 60 -151 28 -11 72 -29 110 -46 14 -6 37 -15 53 -21
15 -5 27 -14 27 -19 0 -12 -92 -41 -133 -41 -51 0 -87 -33 -87 -79 0 -28 12
-54 51 -110 28 -40 61 -85 75 -100 13 -14 24 -29 24 -32 0 -4 36 -51 80 -104
55 -67 77 -101 71 -109 -6 -6 -38 -17 -73 -24 -161 -32 -338 -78 -352 -92 -5
-5 -21 -10 -35 -10 -15 0 -32 -4 -39 -9 -27 -16 18 -21 55 -6 19 8 52 15 72
15 20 0 68 6 106 14 98 21 264 46 299 46 25 0 59 -31 220 -194 105 -107 198
-197 206 -199 12 -3 13 -9 4 -23 -12 -21 -5 -17 -174 -99 -74 -35 -162 -80
-195 -100 -33 -19 -69 -39 -80 -45 -119 -62 -372 -259 -332 -260 9 0 17 4 17
9 0 5 8 11 18 15 9 3 31 15 47 26 17 11 37 23 45 27 8 4 31 18 50 31 19 13 44
28 55 33 11 5 40 21 65 35 58 34 277 144 355 179 33 15 87 40 120 56 59 28
110 37 117 21 8 -20 424 -322 443 -322 3 0 33 -17 67 -38 83 -51 290 -154 397
-198 194 -81 206 -87 206 -106 0 -8 -30 -47 -66 -86 -36 -39 -89 -97 -117
-129 -28 -32 -61 -69 -73 -83 -145 -167 -433 -607 -545 -835 -27 -55 -59 -117
-72 -137 l-22 -38 -225 0 -225 0 -16 -25 c-15 -23 -15 -27 0 -49 l15 -24 2693
-4 c1481 -2 2701 0 2711 5 21 9 24 69 4 86 -9 7 -97 12 -252 13 l-238 3 -77
150 c-42 83 -94 183 -115 223 -22 40 -46 85 -54 100 -21 41 -240 371 -280 422
-54 69 -253 299 -305 354 -25 26 -46 53 -46 60 0 16 21 36 38 36 8 0 28 6 45
14 18 7 71 30 118 50 133 55 336 161 493 257 174 106 198 122 328 221 64 48
124 88 132 88 8 0 27 -7 43 -15 15 -8 55 -26 88 -41 73 -31 233 -112 295 -148
25 -14 52 -29 60 -33 30 -14 217 -128 278 -170 35 -24 66 -43 69 -43 4 0 15
-7 25 -17 10 -9 21 -13 25 -9 20 19 -294 258 -462 351 -112 63 -282 143 -325
155 -14 4 -25 14 -25 23 0 10 66 84 146 165 80 81 163 170 185 197 21 28 44
54 49 58 11 9 49 5 195 -16 177 -27 245 -39 298 -52 55 -14 97 -10 70 6 -7 5
-24 9 -38 9 -15 0 -31 5 -37 11 -6 6 -26 14 -44 19 -19 4 -77 19 -129 32 -52
14 -124 31 -160 37 -95 19 -97 22 -41 94 26 34 76 105 112 157 35 52 66 97 70
100 16 15 69 113 69 129 0 28 -48 70 -89 76 -93 15 -150 53 -95 64 10 1 44 14
74 28 30 14 65 29 77 34 12 4 40 20 63 34 33 21 40 31 40 58 0 41 -3 43 -75
99 -119 91 -219 216 -269 338 -10 25 -24 60 -32 78 -8 18 -14 37 -14 43 0 6
-6 25 -13 42 -18 42 -36 93 -49 137 -5 19 -14 39 -19 45 -5 5 -9 15 -9 23 0
19 -18 60 -105 235 -71 145 -73 149 -60 185 7 20 20 71 29 112 10 41 22 93 28
115 6 22 14 65 18 95 5 30 13 84 19 120 27 170 36 323 36 620 0 300 -6 397
-37 595 -6 39 -14 95 -18 126 -7 55 -18 108 -40 199 -7 25 -15 63 -20 85 -12
62 -70 288 -79 310 -5 11 -25 74 -46 140 -21 66 -42 124 -47 129 -4 6 -8 17
-8 25 0 9 -6 28 -14 43 -8 15 -17 40 -21 57 -4 17 -11 33 -16 36 -5 4 -9 13
-9 22 0 8 -6 29 -14 46 -8 18 -25 59 -37 92 -60 149 -216 223 -347 164 -26
-12 -49 -25 -52 -28 -3 -4 -34 -29 -70 -56 -281 -214 -609 -535 -920 -901 -13
-16 -103 -132 -198 -259 -194 -256 -175 -241 -282 -217 -202 47 -408 66 -640
59 -278 -8 -436 -26 -562 -63 -90 -27 -96 -24 -165 74 -34 48 -71 96 -81 108
-10 11 -36 44 -57 74 -21 30 -41 57 -45 60 -3 3 -28 34 -55 70 -26 36 -53 70
-59 75 -6 6 -29 33 -51 60 -175 219 -603 638 -831 812 -204 157 -258 177 -363
134z m4597 -145 c24 -21 46 -66 101 -206 12 -30 26 -64 30 -75 17 -43 94 -278
116 -355 74 -257 118 -440 134 -560 5 -36 14 -92 20 -125 32 -175 41 -321 41
-641 0 -181 -5 -348 -10 -370 -5 -23 -14 -84 -19 -135 -5 -52 -15 -121 -21
-154 -34 -172 -45 -215 -54 -215 -6 0 -22 19 -36 41 -57 95 -83 133 -94 140
-11 9 -9 121 4 168 9 36 20 137 41 376 17 193 1 518 -37 765 -36 234 -99 508
-145 628 -5 13 -19 52 -30 85 -42 125 -115 272 -147 298 -16 12 -40 19 -69 19
-42 0 -50 -5 -115 -67 -88 -84 -272 -312 -358 -443 -8 -12 -29 -41 -46 -64
-47 -63 -134 -199 -208 -326 -36 -63 -71 -122 -76 -130 -5 -8 -24 -44 -43 -80
-19 -36 -48 -91 -66 -122 -17 -31 -31 -65 -31 -76 0 -21 33 -55 70 -72 31 -14
49 -25 128 -78 35 -23 65 -42 67 -42 7 0 139 -92 215 -150 141 -107 322 -273
421 -385 24 -28 71 -81 103 -119 33 -37 69 -80 80 -95 17 -23 90 -119 133
-176 17 -22 100 -151 107 -165 3 -8 15 -28 26 -45 11 -16 24 -39 30 -50 6 -11
20 -36 31 -55 22 -36 141 -272 164 -325 7 -16 20 -50 30 -75 9 -25 23 -60 31
-78 8 -18 14 -37 14 -43 0 -6 6 -25 14 -42 8 -18 16 -41 19 -52 21 -79 114
-287 136 -305 3 -3 18 -23 33 -45 15 -22 52 -65 83 -95 67 -66 70 -85 14 -100
-23 -6 -49 -15 -58 -19 -9 -5 -32 -15 -51 -23 -113 -49 -197 -92 -207 -106 -7
-9 -13 -27 -13 -40 0 -28 51 -82 78 -82 11 0 33 -7 48 -15 16 -8 36 -15 45
-15 9 0 33 -7 52 -15 20 -8 48 -15 62 -15 31 0 41 -20 24 -52 -16 -30 -115
-161 -198 -262 l-65 -78 -65 6 c-253 26 -814 35 -1006 16 -49 -5 -143 -14
-208 -20 -65 -5 -122 -12 -127 -15 -5 -3 -44 -10 -86 -15 -82 -9 -121 -31
-108 -63 10 -26 46 -30 114 -13 34 9 75 16 92 16 17 0 72 7 122 15 161 25 584
38 883 25 147 -6 278 -13 291 -16 13 -2 22 -12 22 -23 0 -33 -342 -361 -377
-361 -7 0 -27 6 -45 14 -31 13 -56 21 -203 61 -33 9 -75 21 -92 26 -18 6 -54
14 -80 19 -27 5 -66 13 -88 18 -126 32 -454 83 -549 86 -72 2 -77 -66 -5 -71
67 -5 387 -55 509 -80 77 -15 91 -19 265 -71 55 -16 126 -37 158 -46 31 -10
57 -20 57 -24 0 -9 -136 -111 -226 -170 -151 -100 -186 -122 -189 -122 -3 0
-37 -19 -77 -43 -139 -81 -318 -161 -535 -241 -21 -7 -65 -21 -98 -31 -33 -10
-80 -23 -105 -31 -42 -12 -70 -19 -225 -57 -97 -24 -175 -38 -265 -47 -48 -5
-117 -14 -155 -20 -42 -7 -211 -12 -425 -13 -288 -1 -379 2 -480 16 -198 28
-311 47 -366 63 -28 8 -59 14 -69 14 -10 0 -43 7 -74 16 -31 9 -78 22 -106 30
-67 19 -258 81 -292 95 -63 26 -201 88 -263 118 -72 35 -205 108 -252 138 -21
12 -40 23 -43 23 -3 0 -34 20 -71 45 -36 25 -67 45 -69 45 -10 0 -225 164
-225 172 0 11 48 31 125 53 33 10 75 24 93 31 18 8 42 14 54 14 12 0 44 6 72
14 126 35 556 106 642 106 49 0 69 19 60 55 -9 36 -31 35 -306 -6 -199 -29
-182 -26 -327 -60 -27 -6 -68 -15 -93 -20 -25 -5 -76 -18 -115 -29 -38 -12
-88 -25 -110 -30 -42 -8 -87 -23 -144 -47 -32 -13 -36 -13 -70 11 -55 39 -352
338 -348 350 4 12 123 21 432 32 297 10 613 -12 905 -62 117 -20 186 -19 194
3 4 9 1 22 -6 30 -23 22 -220 61 -378 74 -58 5 -150 13 -205 19 -201 19 -862
9 -982 -16 -27 -5 -36 -1 -65 27 -60 61 -249 319 -246 337 2 12 17 19 54 23
28 4 60 11 72 18 11 6 28 11 37 11 20 0 101 36 137 62 22 15 28 27 28 58 0 34
-5 43 -37 65 -21 14 -43 25 -50 25 -8 0 -21 4 -31 10 -31 17 -162 69 -202 80
-55 15 -52 34 16 100 94 93 184 248 228 395 10 33 24 76 31 95 7 19 20 60 30
90 9 30 23 69 31 87 8 17 14 34 14 37 0 13 149 321 180 371 10 17 28 48 40 70
48 88 283 417 376 525 152 179 444 439 644 572 50 34 245 149 319 190 27 15
31 23 31 58 0 27 -11 60 -32 98 -46 83 -161 276 -168 282 -4 3 -9 12 -13 22
-16 45 -452 674 -515 744 -9 11 -43 49 -75 86 -68 78 -104 95 -165 78 -32 -8
-47 -21 -76 -64 -20 -30 -36 -59 -36 -64 0 -6 -8 -25 -17 -44 -9 -18 -22 -45
-30 -60 -7 -14 -13 -35 -13 -45 0 -10 -4 -23 -8 -29 -21 -22 -122 -384 -142
-504 -4 -25 -12 -70 -18 -100 -25 -128 -35 -201 -42 -300 -5 -58 -14 -174 -21
-258 -10 -122 -10 -185 -1 -305 23 -278 31 -364 41 -408 22 -92 15 -123 -42
-212 -30 -45 -59 -92 -66 -104 -6 -13 -16 -23 -20 -23 -12 0 -41 87 -41 123 0
16 -6 59 -14 96 -39 181 -50 329 -50 676 1 263 5 368 18 465 23 168 45 306 58
355 6 22 14 63 18 90 4 28 13 73 20 100 23 93 41 160 54 205 8 25 22 72 32
105 31 107 75 239 89 270 7 17 21 50 30 75 10 25 23 59 31 75 7 17 20 48 29
70 49 120 71 144 128 145 43 0 101 -34 197 -115 74 -63 87 -73 145 -120 143
-115 542 -516 637 -642 12 -15 47 -57 78 -93 31 -36 107 -132 168 -215 61 -82
115 -154 119 -160 5 -5 30 -43 56 -82 51 -77 78 -99 105 -88 18 7 108 30 177
44 22 5 60 13 85 19 98 24 302 42 470 42 246 0 465 -32 701 -102 52 -15 70 -1
136 100 196 302 601 780 864 1022 51 47 101 93 111 102 40 39 257 217 313 257
52 37 65 42 98 38 21 -3 46 -12 55 -21z m-4303 -577 c39 -51 84 -110 100 -133
17 -22 62 -84 100 -136 69 -93 135 -188 165 -235 97 -153 128 -210 119 -216
-6 -3 -32 0 -57 7 -53 16 -258 19 -267 4 -3 -6 6 -15 22 -21 42 -15 203 -97
238 -119 17 -11 37 -23 45 -27 16 -7 39 -33 40 -44 0 -4 -37 -10 -82 -14 -113
-9 -181 -36 -306 -119 -72 -48 -137 -105 -129 -113 3 -2 24 0 48 6 165 36 243
45 323 36 83 -8 88 -29 19 -73 -49 -31 -106 -73 -234 -176 -97 -78 -351 -333
-418 -418 -65 -84 -81 -87 -81 -15 0 28 -7 106 -15 172 -27 224 -14 572 31
820 8 44 14 91 14 104 0 13 7 55 15 95 9 39 23 105 31 146 9 41 22 93 29 115
7 22 20 67 30 100 10 33 24 75 31 93 8 18 14 39 14 47 0 15 21 68 46 117 8 14
14 32 14 39 0 13 29 49 39 49 4 0 38 -41 76 -91z m4167 -6 c103 -249 193 -625
218 -908 28 -313 32 -414 20 -571 -7 -87 -16 -206 -19 -263 -4 -64 -10 -106
-17 -108 -7 -2 -52 42 -102 99 -145 166 -385 394 -530 502 -72 54 -132 104
-132 111 0 13 64 25 135 25 47 0 203 -32 252 -51 18 -7 35 -10 39 -6 17 16
-142 154 -216 188 -92 42 -115 49 -190 55 -44 4 -80 11 -80 16 0 12 50 58 75
69 11 5 34 18 50 29 17 11 37 23 45 26 90 36 156 72 150 81 -3 4 -76 8 -162 8
-118 0 -158 3 -158 12 0 7 24 47 53 88 28 42 57 84 62 93 6 9 22 33 38 53 15
20 27 40 27 44 0 3 20 32 43 63 24 31 49 66 55 78 6 12 26 39 44 61 18 23 53
67 78 99 25 32 62 78 84 103 21 25 47 56 57 69 10 12 25 22 32 22 7 0 29 -39
49 -87z m-3202 -5657 c25 -8 77 -20 115 -29 39 -9 100 -23 137 -31 37 -9 80
-16 95 -16 15 0 73 -6 128 -15 231 -34 282 -38 530 -42 168 -3 299 -1 370 7
61 7 151 16 200 20 164 13 330 46 553 109 79 22 103 19 137 -19 l20 -22 -24
-19 c-13 -10 -29 -19 -37 -19 -7 0 -28 -6 -46 -14 -33 -14 -85 -34 -155 -60
-79 -28 -230 -67 -348 -90 -151 -28 -210 -36 -405 -52 -165 -14 -224 -14 -380
-5 -242 15 -445 45 -596 87 -28 8 -59 14 -69 14 -15 0 -62 13 -150 42 -16 5
-43 13 -60 18 -16 5 -55 18 -85 30 -30 12 -65 24 -78 27 -37 9 -36 23 4 64 42
43 45 43 144 15z m2405 -164 c22 -15 205 -231 268 -317 37 -49 70 -94 75 -100
4 -5 26 -39 47 -74 22 -35 48 -75 57 -90 10 -14 22 -35 28 -46 6 -11 20 -36
32 -55 11 -19 56 -104 99 -189 76 -148 93 -201 67 -201 -7 0 -155 0 -328 0
-236 0 -316 4 -322 13 -4 6 -8 106 -8 221 0 181 -2 212 -17 228 -21 24 -58 23
-83 -2 -19 -19 -20 -33 -20 -228 0 -148 -3 -211 -12 -220 -9 -9 -298 -12
-1239 -12 l-1227 0 -6 23 c-3 12 -6 112 -6 223 l0 201 -25 23 c-21 20 -30 22
-52 14 -48 -16 -53 -42 -53 -261 0 -153 -3 -205 -13 -215 -20 -20 -655 -14
-663 7 -8 20 62 157 188 365 38 63 75 124 81 135 7 11 24 36 40 56 15 20 27
40 27 44 0 6 237 325 250 335 3 3 23 27 44 53 51 63 67 71 108 53 34 -14 97
-39 158 -61 99 -36 277 -88 365 -106 22 -4 60 -12 85 -18 85 -19 225 -41 260
-41 19 0 53 -4 75 -9 22 -5 79 -12 128 -16 63 -5 87 -11 87 -20 0 -8 -9 -16
-19 -20 -25 -8 -63 -59 -84 -113 -67 -169 74 -362 263 -362 152 0 262 115 262
274 0 85 -24 139 -84 190 -26 23 -35 36 -27 41 11 7 59 14 270 35 53 5 116 14
140 19 24 5 71 15 104 21 91 18 133 28 210 50 39 12 84 25 100 30 27 8 161 55
255 91 19 7 46 18 60 26 28 15 40 16 55 5z m-1278 -380 c53 -29 77 -69 77
-127 0 -88 -68 -155 -158 -155 -43 0 -51 4 -96 50 -45 44 -50 53 -50 95 0 54
19 87 74 126 46 34 103 38 153 11z"/>
<path d="M4445 6597 c-13 -21 -15 -68 -13 -327 l3 -303 28 -20 27 -21 28 21
27 20 3 311 c2 272 0 312 -14 326 -24 24 -71 20 -89 -7z"/>
<path d="M3966 6454 c-20 -19 -21 -70 -2 -106 8 -15 17 -40 21 -57 4 -17 11
-33 16 -36 5 -4 9 -15 9 -26 0 -33 39 -99 66 -111 21 -10 28 -8 49 12 14 13
25 30 25 38 0 37 -83 257 -108 285 -19 21 -55 22 -76 1z"/>
<path d="M4936 6446 c-8 -14 -25 -53 -36 -88 -12 -35 -25 -71 -30 -80 -6 -10
-14 -38 -20 -64 -13 -59 5 -94 50 -94 29 0 70 38 70 66 0 7 6 28 14 46 50 119
60 210 27 228 -32 16 -58 12 -75 -14z"/>
<path d="M3065 5714 c-11 -2 -45 -9 -75 -15 -73 -15 -190 -73 -246 -122 -35
-31 -44 -45 -44 -71 0 -50 52 -86 93 -65 12 6 36 24 52 40 17 15 58 42 92 58
55 28 71 31 153 31 81 0 98 -3 153 -30 74 -38 115 -37 136 2 24 42 6 76 -59
111 -76 41 -204 72 -255 61z"/>
<path d="M5805 5710 c-16 -5 -47 -13 -69 -19 -21 -5 -43 -14 -49 -20 -6 -6
-19 -11 -28 -11 -19 0 -69 -54 -69 -75 0 -29 24 -66 47 -71 16 -4 46 4 89 26
60 29 74 32 163 33 88 0 101 -3 160 -32 35 -17 79 -45 98 -61 58 -51 133 -33
133 32 0 34 -76 107 -150 146 -100 53 -241 75 -325 52z"/>
<path d="M2975 5151 c-118 -15 -256 -67 -355 -134 -59 -40 -173 -150 -215
-207 -190 -260 -216 -616 -64 -897 73 -134 163 -240 274 -318 69 -50 187 -108
275 -136 67 -21 94 -23 245 -23 151 0 178 3 245 24 212 66 401 218 504 404 84
151 121 406 81 559 -8 32 -15 65 -15 73 0 9 -7 32 -16 52 -117 272 -259 425
-497 536 -42 20 -84 36 -91 36 -7 0 -29 7 -48 15 -42 17 -236 27 -323 16z
m240 -145 c44 -8 96 -21 115 -28 232 -90 406 -275 482 -514 29 -91 31 -308 4
-394 -81 -251 -287 -439 -545 -494 -97 -21 -169 -20 -272 3 -101 23 -134 35
-208 74 -199 106 -324 260 -382 468 -27 98 -26 290 1 378 43 135 109 241 214
339 103 96 201 145 336 167 102 17 160 17 255 1z"/>
<path d="M3115 4859 c-152 -50 -266 -178 -319 -358 -22 -72 -22 -260 0 -332
22 -74 45 -131 61 -150 7 -8 13 -20 13 -26 0 -17 111 -134 152 -159 222 -141
481 -17 578 276 32 95 44 210 31 287 -7 38 -14 81 -17 98 -9 61 -81 189 -139
248 -103 106 -248 152 -360 116z m48 -98 c42 -16 93 -75 107 -124 40 -145
-115 -287 -241 -219 -139 74 -144 261 -9 333 37 20 104 25 143 10z"/>
<path d="M5666 5129 c-90 -24 -227 -91 -296 -144 -69 -53 -175 -162 -213 -218
-43 -63 -116 -217 -126 -268 -5 -24 -14 -62 -20 -84 -18 -69 -13 -261 9 -340
40 -146 71 -208 157 -320 102 -133 250 -234 428 -295 63 -22 87 -24 230 -24
131 1 174 5 239 23 220 59 427 216 539 409 20 35 37 69 37 77 0 8 4 16 9 19
11 7 46 120 61 200 24 118 9 303 -35 431 -65 191 -239 387 -425 476 -25 12
-53 25 -62 30 -10 5 -34 13 -55 18 -21 6 -56 15 -78 20 -69 18 -320 12 -399
-10z m327 -124 c171 -15 345 -123 465 -288 227 -313 157 -750 -159 -993 -105
-81 -195 -118 -354 -145 -103 -18 -116 -18 -200 -4 -293 50 -492 222 -580 503
-24 75 -24 296 0 372 40 131 81 204 172 307 35 40 85 87 111 106 50 36 178
107 194 107 6 0 24 7 41 15 31 14 185 35 217 29 8 -1 50 -5 93 -9z"/>
<path d="M5660 4851 c-62 -22 -86 -37 -138 -85 -61 -56 -131 -166 -132 -206 0
-9 -6 -22 -12 -28 -9 -9 -14 -60 -16 -163 -4 -167 3 -205 66 -339 47 -101 151
-206 235 -238 77 -29 157 -29 234 0 113 43 245 210 274 348 5 25 14 70 20 100
40 196 -71 480 -225 577 -83 53 -214 68 -306 34z m111 -106 c75 -68 93 -179
41 -251 -38 -51 -49 -60 -99 -73 -168 -45 -286 175 -160 300 42 42 62 49 134
46 44 -2 68 -8 84 -22z"/>
<path d="M4330 3625 c-112 -25 -163 -48 -207 -92 -53 -53 -55 -81 -11 -171 35
-70 130 -173 209 -227 24 -17 50 -36 57 -42 7 -7 20 -13 27 -13 21 0 36 -36
29 -67 -10 -41 -32 -72 -84 -123 -86 -85 -199 -102 -309 -46 -62 31 -71 40
-108 114 -24 47 -29 52 -59 52 -108 0 -42 -193 91 -267 98 -55 208 -67 313
-34 71 23 91 34 156 84 27 20 53 37 59 37 6 0 27 -16 47 -34 19 -19 66 -51
105 -70 66 -34 74 -36 174 -36 96 0 110 2 166 30 85 41 140 104 170 194 14 42
14 48 -1 71 -13 20 -24 25 -48 23 -25 -2 -34 -11 -56 -53 -33 -66 -55 -89
-113 -120 -97 -51 -233 -25 -320 61 -41 41 -80 115 -75 141 2 9 37 40 78 67
155 105 281 258 284 346 0 22 -8 47 -21 66 -29 40 -129 89 -223 108 -88 19
-250 19 -330 1z m260 -85 c36 -5 89 -18 118 -27 45 -15 52 -21 52 -43 0 -28
-30 -71 -96 -135 -81 -80 -142 -125 -168 -125 -26 0 -107 61 -186 140 -74 74
-109 126 -93 140 25 22 180 56 268 59 22 0 69 -4 105 -9z"/>
<path d="M4483 3413 c15 -2 39 -2 55 0 15 2 2 4 -28 4 -30 0 -43 -2 -27 -4z"/>
<path d="M1382 698 c-14 -14 -15 -47 -2 -68 7 -12 38 -16 148 -18 119 -3 142
-1 156 13 20 21 21 49 0 69 -12 13 -41 16 -153 16 -93 0 -141 -4 -149 -12z"/>
<path d="M7310 684 c-12 -29 0 -58 30 -74 10 -5 64 -10 120 -10 94 0 103 2
125 24 16 16 23 31 19 43 -14 37 -34 43 -161 43 -123 0 -124 0 -133 -26z"/>
</g>
</svg>
