<?xml version="1.0" standalone="no"?>
<!DOCTYPE svg PUBLIC "-//W3C//DTD SVG 20010904//EN"
 "http://www.w3.org/TR/2001/REC-SVG-20010904/DTD/svg10.dtd">
<svg version="1.0" xmlns="http://www.w3.org/2000/svg"
 width="900.000000pt" height="900.000000pt" viewBox="0 0 900.000000 900.000000"
 preserveAspectRatio="xMidYMid meet">
<metadata>
Created by potrace 1.10, written by Peter Selinger 2001-2011
</metadata>
<g transform="translate(0.000000,900.000000) scale(0.100000,-0.100000)"
fill="#000000" stroke="none">
<path d="M4036 8575 c-60 -30 -81 -48 -115 -100 -36 -56 -49 -118 -60 -290 -6
-82 -15 -174 -21 -204 -5 -29 -10 -88 -10 -130 0 -42 -7 -132 -15 -201 -22
-175 -35 -192 -185 -239 -185 -58 -344 -124 -540 -226 -76 -40 -139 -30 -215
33 -16 13 -82 72 -145 131 -359 333 -436 402 -468 421 -30 18 -137 50 -169 50
-39 0 -145 -40 -185 -69 -49 -36 -526 -507 -566 -559 -32 -41 -62 -127 -62
-177 0 -85 72 -202 228 -370 21 -22 62 -69 92 -105 30 -36 57 -67 61 -70 15
-14 216 -259 232 -282 11 -18 17 -47 17 -85 0 -52 -7 -73 -74 -208 -40 -82
-81 -170 -91 -195 -10 -25 -23 -58 -30 -75 -16 -37 -34 -91 -45 -130 -50 -176
-105 -224 -260 -225 -47 0 -112 -4 -145 -10 -33 -5 -139 -14 -235 -19 -286
-17 -400 -31 -453 -54 -61 -26 -108 -72 -144 -139 l-28 -53 0 -430 c0 -403 1
-433 19 -475 24 -55 66 -102 126 -140 37 -23 66 -31 170 -44 69 -9 157 -16
195 -16 39 0 142 -7 230 -15 88 -8 197 -15 242 -15 89 0 164 -20 199 -52 25
-23 41 -58 83 -193 50 -156 62 -184 165 -395 68 -138 76 -161 76 -211 0 -70
-2 -73 -311 -445 -124 -148 -238 -287 -255 -309 -61 -79 -81 -201 -47 -287 9
-24 38 -70 64 -103 66 -84 515 -527 564 -557 61 -38 160 -54 232 -39 94 22 76
7 493 401 80 76 165 157 190 180 59 54 142 94 181 86 15 -3 88 -34 161 -70 73
-35 158 -74 188 -86 30 -12 66 -27 80 -32 14 -6 39 -14 55 -19 17 -4 64 -19
105 -33 41 -14 81 -26 90 -26 19 -1 62 -37 83 -70 19 -29 47 -257 47 -378 0
-43 5 -107 10 -145 6 -37 14 -145 20 -240 9 -169 19 -222 52 -282 23 -41 74
-88 133 -121 l50 -28 385 -7 c390 -8 486 -3 511 27 6 8 17 14 23 14 16 1 69
49 99 90 44 61 57 115 68 290 5 91 14 192 19 225 5 33 10 101 10 151 0 152 27
372 50 409 25 40 116 83 265 125 53 15 120 41 130 51 5 5 15 9 22 9 7 0 78 32
158 71 79 38 159 73 178 76 72 11 110 -17 427 -317 344 -326 351 -331 440
-350 50 -11 74 -11 131 0 38 7 74 19 80 27 6 7 17 13 23 13 20 0 586 566 586
586 0 6 5 15 12 22 15 15 36 76 43 127 9 55 -23 151 -71 217 -36 48 -260 321
-422 513 -137 162 -137 161 -136 240 1 60 6 80 36 140 20 39 48 97 63 130 14
33 32 74 39 90 13 28 25 59 60 153 8 20 22 62 31 92 10 30 24 70 31 88 8 18
14 38 14 45 0 18 58 70 95 86 17 8 93 17 170 21 227 12 460 30 619 46 139 14
152 17 201 49 65 41 97 83 124 160 20 56 21 79 21 463 l0 403 -31 62 c-38 78
-57 98 -127 135 -53 28 -71 31 -252 46 -240 19 -471 36 -610 45 -171 12 -195
35 -260 249 -13 40 -27 75 -31 78 -5 3 -9 13 -9 23 0 23 -68 180 -132 306 -46
90 -52 107 -52 165 0 65 13 100 53 141 9 9 34 37 56 64 22 26 67 80 100 119
33 39 95 112 136 161 42 50 89 105 105 124 16 19 43 50 60 70 58 68 84 107 99
152 30 85 16 186 -36 264 -30 44 -512 525 -570 568 -36 27 -145 67 -182 67
-33 0 -140 -32 -158 -47 -8 -7 -20 -13 -25 -13 -5 0 -17 -8 -25 -17 -9 -10
-33 -34 -55 -53 -114 -104 -307 -281 -364 -336 -237 -227 -253 -231 -452 -133
-67 34 -138 68 -155 75 -77 33 -100 42 -143 59 -100 39 -211 75 -231 75 -18 1
-61 38 -82 72 -19 30 -47 253 -47 372 0 40 -4 97 -10 127 -5 30 -14 124 -20
209 -14 232 -53 310 -179 366 l-53 24 -432 -1 -431 0 -49 -24z m711 -2309 c55
-8 119 -19 143 -26 155 -40 159 -42 280 -90 71 -29 167 -76 205 -100 17 -11
37 -23 45 -27 14 -6 55 -35 135 -96 198 -149 370 -358 479 -582 82 -167 100
-218 146 -394 21 -80 50 -314 50 -401 0 -88 -29 -323 -50 -401 -49 -182 -100
-312 -184 -464 -100 -179 -315 -416 -481 -531 -228 -157 -439 -247 -705 -300
-118 -24 -456 -23 -590 0 -201 36 -389 104 -575 209 -126 70 -288 198 -396
313 -46 49 -189 236 -202 264 -4 8 -16 29 -26 45 -54 84 -128 259 -165 385
-62 216 -87 518 -56 679 5 30 10 70 10 89 0 19 7 60 16 91 8 31 22 81 31 111
25 90 63 188 110 285 41 83 40 82 123 210 79 122 305 353 423 433 43 28 80 52
82 52 2 0 21 12 42 26 100 68 318 157 448 183 22 5 48 12 58 16 9 4 79 16 155
26 150 20 280 19 449 -5z"/>
</g>
</svg>
