<?xml version="1.0" encoding="utf-8" ?><svg xmlns="http://www.w3.org/2000/svg" xmlns:xlink="http://www.w3.org/1999/xlink" width="1024" height="1024" viewBox="0 0 1024 1024"><path transform="scale(2 2)" d="M250.475 53.7454C287.472 48.9268 324.885 80.9873 329.516 117.672C330.534 125.736 330.253 133.913 330.254 142.024L330.251 219.477C330.251 228.679 330.78 238.431 329.158 247.515C323.009 281.943 297.239 306.277 262.198 310.5C222.593 312.04 188.346 286.509 182.683 246.494C180.356 230.056 181.995 204.153 181.995 187.147L181.988 145.397C181.986 135.708 181.374 125.573 183.099 116.013C189.553 80.2385 215.758 58.5363 250.475 53.7454Z"/><path transform="scale(2 2)" d="M374.115 222.301C392.695 221.382 395.455 236.068 394.066 250.484C389.068 302.365 355.246 347.114 306.777 366.728C300.619 369.22 294.31 370.961 287.947 372.819C287.601 389.894 287.921 407.054 287.935 424.136C287.962 456.636 288.649 458.166 258.164 458.056C238.041 457.984 224.007 461.686 224.201 436.77L224.234 372.819C192.754 361.652 174.727 354.794 151.068 327.513C133.588 306.767 114.348 265.333 118.03 237.066C119.578 225.178 133.843 218.502 144.053 225.215C151.973 230.421 151.546 237.78 152.318 246.18C155.187 277.385 171.878 306.898 198.206 324.229C261.561 365.933 342.978 329.492 358.586 255.607C361.473 241.943 357.246 225.725 374.115 222.301Z"/></svg>