<?xml version="1.0" standalone="no"?>
<!DOCTYPE svg PUBLIC "-//W3C//DTD SVG 20010904//EN"
 "http://www.w3.org/TR/2001/REC-SVG-20010904/DTD/svg10.dtd">
<svg version="1.0" xmlns="http://www.w3.org/2000/svg"
 width="900.000000pt" height="846.000000pt" viewBox="0 0 900.000000 846.000000"
 preserveAspectRatio="xMidYMid meet">
<metadata>
Created by potrace 1.10, written by Peter Selinger 2001-2011
</metadata>
<g transform="translate(0.000000,846.000000) scale(0.100000,-0.100000)"
fill="#000000" stroke="none">
<path d="M3755 7944 c-95 -6 -250 -53 -363 -111 -219 -112 -392 -310 -466
-533 -48 -145 -57 -216 -57 -460 0 -259 2 -268 65 -356 66 -91 184 -134 308
-112 104 19 172 71 216 168 24 51 26 69 33 265 6 167 12 223 27 273 20 61 59
125 94 150 9 7 23 18 30 25 25 25 104 56 169 66 92 15 1296 15 1375 0 85 -16
159 -56 211 -113 80 -89 92 -138 102 -416 7 -183 11 -220 28 -250 37 -69 56
-90 111 -127 57 -38 57 -38 162 -38 97 0 108 2 152 28 59 36 105 87 134 152
30 67 39 219 25 430 -14 201 -33 278 -106 427 -114 231 -320 407 -565 483 -30
9 -75 24 -100 33 -39 14 -135 16 -785 17 -407 1 -767 0 -800 -1z"/>
<path d="M4090 6903 c-93 -33 -157 -108 -179 -211 -7 -35 -11 -220 -11 -547 0
-487 0 -494 -20 -505 -15 -8 -182 -10 -548 -9 l-527 3 -55 -26 c-76 -36 -123
-84 -151 -154 -23 -58 -24 -64 -24 -409 1 -312 2 -356 19 -403 26 -76 95 -147
168 -172 54 -19 86 -20 586 -20 397 0 531 -3 540 -12 9 -9 12 -135 12 -506 0
-501 3 -554 38 -612 25 -40 65 -81 97 -98 74 -40 91 -42 456 -42 418 0 421 1
509 89 31 31 62 74 70 96 11 32 15 145 20 560 l5 520 550 5 c542 5 551 5 595
27 52 26 98 63 116 96 52 90 49 66 49 462 l0 370 -28 60 c-31 67 -70 107 -137
138 -44 22 -58 22 -595 27 l-550 5 -5 530 c-6 545 -7 570 -46 616 -8 8 -14 20
-14 25 0 21 -99 84 -155 99 -87 22 -719 21 -785 -2z"/>
<path d="M1700 5935 c-52 -6 -115 -17 -140 -23 -59 -14 -201 -71 -221 -88 -8
-8 -19 -14 -23 -14 -14 0 -152 -109 -205 -161 -105 -106 -188 -246 -235 -394
-49 -158 -49 -150 -53 -871 -3 -440 -1 -712 6 -765 15 -119 31 -201 40 -214 5
-5 12 -26 16 -45 4 -19 11 -41 15 -50 5 -8 23 -44 40 -80 52 -106 99 -170 189
-260 97 -96 185 -153 322 -209 180 -73 246 -79 892 -80 406 -1 517 -4 518 -13
0 -7 2 -267 3 -578 3 -599 3 -591 53 -760 42 -138 139 -295 251 -402 144 -138
281 -208 514 -262 58 -14 170 -16 800 -16 678 0 740 2 824 19 50 10 101 24
112 30 11 6 28 11 36 11 21 0 152 62 199 94 21 14 41 26 44 26 17 0 159 141
208 206 90 119 140 227 188 404 18 70 20 114 24 647 4 421 8 575 17 582 7 6
229 11 576 13 607 4 578 2 760 59 192 60 393 210 502 375 50 75 105 182 119
229 4 17 21 73 36 125 l28 95 0 750 c0 808 2 779 -52 950 -89 280 -325 523
-603 618 -126 44 -181 51 -385 52 l-200 0 -53 -33 c-89 -55 -129 -112 -152
-217 -20 -90 18 -212 86 -277 68 -65 118 -80 294 -89 85 -4 166 -11 180 -15
90 -24 193 -106 226 -180 41 -96 43 -133 44 -793 0 -642 -4 -729 -38 -796 -49
-98 -122 -162 -227 -198 -45 -16 -117 -17 -787 -17 -735 0 -736 0 -794 -22
-89 -34 -163 -117 -186 -208 -5 -19 -11 -354 -14 -745 -2 -390 -9 -733 -14
-761 -18 -105 -88 -206 -171 -248 -104 -53 -72 -51 -804 -51 -677 0 -680 0
-751 22 -119 38 -195 113 -240 238 -17 46 -19 109 -24 795 -4 518 -9 755 -17
777 -28 80 -99 151 -180 182 -54 21 -69 21 -771 21 -433 0 -732 4 -754 10 -21
6 -53 14 -71 19 -87 22 -175 107 -219 211 l-23 55 0 705 0 705 23 55 c38 90
91 151 163 189 59 31 72 34 204 42 234 14 271 24 345 93 183 169 90 490 -155
535 -73 14 -211 12 -335 -4z"/>
</g>
</svg>
