<svg t="1751269950155" class="icon" viewBox="0 0 1024 1024" version="1.1" xmlns="http://www.w3.org/2000/svg" p-id="1474" width="200" height="200"><path d="M469.333 469.333H298.667a42.667 42.667 0 0 0 0 85.334h170.666v170.666a42.667 42.667 0 0 0 85.334 0V554.667h170.666a42.667 42.667 0 0 0 0-85.334H554.667V298.667a42.667 42.667 0 0 0-85.334 0v170.666z m42.667 512C252.8 981.333 42.667 771.2 42.667 512S252.8 42.667 512 42.667 981.333 252.8 981.333 512 771.2 981.333 512 981.333z" p-id="1475" fill="#000000"></path></svg>